<svg xmlns="http://www.w3.org/2000/svg" viewBox="0 0 500 500"><g id="freepik--Floor--inject-3"><path id="freepik--floor--inject-3" d="M87.14,259.55c-89.94,51.92-89.93,136.11,0,188s235.77,51.93,325.71,0,89.93-136.12,0-188S177.08,207.62,87.14,259.55Z" style="fill:#f5f5f5"></path></g><g id="freepik--Shadows--inject-3"><ellipse id="freepik--Shadow--inject-3" cx="360" cy="308.21" rx="45.99" ry="26.55" style="fill:#e0e0e0"></ellipse><ellipse id="freepik--shadow--inject-3" cx="318.55" cy="398.76" rx="112.59" ry="65.01" style="fill:#e0e0e0"></ellipse><ellipse id="freepik--shadow--inject-3" cx="182.66" cy="320.68" rx="115.23" ry="66.53" style="fill:#e0e0e0"></ellipse></g><g id="freepik--Napkin--inject-3"><g id="freepik--napkin--inject-3"><polygon points="220.98 447.12 75.83 461.46 61.15 354.84 220.98 447.12" style="fill:#e0e0e0"></polygon><polygon points="220.98 447.12 74.8 454 61.15 354.84 220.98 447.12" style="opacity:0.1"></polygon><polygon points="220.98 447.12 56.37 449.88 61.15 354.84 220.98 447.12" style="fill:#fafafa"></polygon><path d="M62.07,356.53l155.28,89.65L57.42,448.86l4.65-92.33m-.92-1.69-4.78,95L221,447.12,61.15,354.84Z" style="fill:#ebebeb"></path><polygon points="56.88 439.74 57.31 431.19 189.87 429.16 204.29 437.49 56.88 439.74" style="fill:#9339EA"></polygon></g></g><g id="freepik--Drink--inject-3"><g id="freepik--Soda--inject-3"><path d="M393.8,170.32C376,160,347.06,160,329.24,170.32c-9.54,5.51-14,12.85-13.31,20.06h0L325.63,304h0c.42,5,3.91,9.87,10.48,13.66,14,8.1,36.78,8.1,50.81,0,6.58-3.79,10.07-8.69,10.48-13.66h0l9.71-113.59h0C407.77,183.17,403.34,175.83,393.8,170.32Z" style="fill:#f5f5f5"></path><path d="M344.31,309.22l-1.7-48.75-20.71-.19L325.63,304h0c.42,5,3.91,9.87,10.48,13.66,13.2,7.62,34.12,8.07,48.23,1.35C364.29,326.14,344.31,319.63,344.31,309.22Z" style="fill:#ebebeb"></path><path d="M324.6,291.85c.61,4.95,4.18,9.8,10.74,13.58,14.46,8.35,37.9,8.35,52.36,0,6.56-3.79,10.13-8.64,10.74-13.59l8.67-101.46h0c.67-7.21-3.76-14.55-13.3-20.06C376,160,347.06,160,329.24,170.32c-9.54,5.51-14,12.85-13.31,20.06h0Z" style="fill:#9339EA"></path><path d="M324.6,291.85c.61,4.95,4.18,9.8,10.74,13.58,14.46,8.35,37.9,8.35,52.36,0,6.56-3.79,10.13-8.64,10.74-13.59l8.67-101.46h0c.67-7.21-3.76-14.55-13.3-20.06C376,160,347.06,160,329.24,170.32c-9.54,5.51-14,12.85-13.31,20.06h0Z" style="fill:#fff;opacity:0.25"></path><path d="M335.34,305.43a42.56,42.56,0,0,0,9,3.82v0c-.16-4.7-3-87.19-3.4-96.73a53.09,53.09,0,0,1-11.67-4.89c-8.29-4.8-12.72-11-13.31-17.22l8.67,101.49C325.22,296.81,328.79,301.65,335.34,305.43Z" style="fill:#9339EA;opacity:0.6000000000000001"></path><ellipse cx="361.52" cy="188.96" rx="45.65" ry="26.36" style="fill:#9339EA"></ellipse><ellipse cx="361.52" cy="188.96" rx="45.65" ry="26.36" style="fill:#fff;opacity:0.5"></ellipse><ellipse cx="361.52" cy="188.96" rx="43.34" ry="23.99" style="fill:#e0e0e0"></ellipse><path d="M330.29,172.45c8.29-4.82,19.38-7.48,31.22-7.48s22.93,2.66,31.23,7.48c7.8,4.54,12.11,10.4,12.11,16.51a13.66,13.66,0,0,1-1,5.11c-1.7-4.22-5.5-8.16-11.09-11.41-8.3-4.82-19.39-7.47-31.23-7.47s-22.93,2.65-31.22,7.47c-5.6,3.25-9.39,7.19-11.09,11.41a13.46,13.46,0,0,1-1-5.11C318.18,182.85,322.48,177,330.29,172.45Z" style="fill:#9339EA"></path><path d="M361.51,165c11.84,0,22.93,2.66,31.23,7.48,7.8,4.54,12.11,10.4,12.11,16.51a13.66,13.66,0,0,1-1,5.11c-1.7-4.22-5.5-8.16-11.09-11.41-8.3-4.82-19.39-7.47-31.23-7.47-.74,0-1.47,0-2.21,0,2.85,0,8.85-1.47,6.83-5.4-2.11-4.1-7.45-4.81-11.38-4.55C357,165.07,359.22,165,361.51,165Z" style="opacity:0.15"></path><path d="M318.18,189c0-5.4,3.36-10.6,9.52-14.87-2.89,3.38-1.26,9.42,5,7.27h.05c-.84.42-1.66.85-2.45,1.31-5.6,3.25-9.39,7.19-11.09,11.41A13.46,13.46,0,0,1,318.18,189Z" style="opacity:0.15"></path><path d="M330.29,182.66c8.29-4.82,19.38-7.47,31.22-7.47s22.93,2.65,31.23,7.47c5.59,3.25,9.39,7.19,11.09,11.41-1.7,4.21-5.5,8.15-11.1,11.4-8.29,4.82-19.38,7.47-31.22,7.47s-22.93-2.65-31.22-7.47c-5.6-3.25-9.39-7.19-11.09-11.4C320.9,189.85,324.69,185.91,330.29,182.66Z" style="fill:#37474f"></path><path d="M366.9,175.38a3.89,3.89,0,0,1,1.4,1.39c.58,1-.06,2.28.53,3.29a4.15,4.15,0,0,0,2.75,2c1.55.37,3.9.63,5.72,2.18a2.61,2.61,0,0,1,.85,1.43,3.15,3.15,0,0,1-.74,2.5c-.54.71-1.22,1.31-1.74,2a3,3,0,0,0-.63,2.52,3.46,3.46,0,0,0,1.59,1.79c2.67,1.72,5.9,2.43,8.45,4.32a4.83,4.83,0,0,1,1.73,2,4,4,0,0,1-.8,3.9c-.52.64-1.35,1.52-4,2.28-.93.26-1.85.55-2.79.75-2.75.58-6,3.25-8.53,4.59a57.89,57.89,0,0,0,22-6.92c5.6-3.25,9.4-7.19,11.1-11.4-1.7-4.22-5.5-8.16-11.09-11.41C385.72,178.58,376.69,176.06,366.9,175.38Zm26.32,20.53a.76.76,0,0,1,.69,0,.21.21,0,0,1,0,.4.71.71,0,0,1-.69,0A.21.21,0,0,1,393.22,195.91Zm-4.34,5.46a2.37,2.37,0,0,1,2.14,0,.66.66,0,0,1,0,1.25,2.37,2.37,0,0,1-2.14,0A.66.66,0,0,1,388.88,201.37Zm-.93-2a.76.76,0,0,1,.69,0,.21.21,0,0,1,0,.4.76.76,0,0,1-.69,0A.21.21,0,0,1,388,199.41Zm-.44-6.15a3.69,3.69,0,0,1,3.39,0,1,1,0,0,1,0,2,3.69,3.69,0,0,1-3.39,0A1,1,0,0,1,387.51,193.26Zm-7.17-8.57a1.17,1.17,0,0,1-1.09,0c-.3-.17-.3-.45,0-.63a1.23,1.23,0,0,1,1.09,0C380.64,184.24,380.64,184.52,380.34,184.69Zm1.58,3.31a1,1,0,0,1,0-2,3.69,3.69,0,0,1,3.39,0,1,1,0,0,1,0,2A3.69,3.69,0,0,1,381.92,188Zm1.15,6.81a1.23,1.23,0,0,1,1.09,0c.3.18.3.46,0,.63a1.17,1.17,0,0,1-1.09,0C382.77,195.27,382.77,195,383.07,194.81Zm-1-4.23a1.18,1.18,0,0,1,0,2.24,4.26,4.26,0,0,1-3.87,0,1.19,1.19,0,0,1,0-2.24A4.2,4.2,0,0,1,382,190.58Zm-7.42-9.64a.76.76,0,0,1,.69,0c.2.11.2.29,0,.4a.76.76,0,0,1-.69,0A.21.21,0,0,1,374.62,180.94Z" style="fill:#455a64"></path><path d="M319.2,194.07c1.7,4.21,5.49,8.15,11.09,11.4,7.27,4.22,16.68,6.78,26.87,7.35l-1.08-.55a18.06,18.06,0,0,0-7-2.31c-1.93-.11-4.21.22-5.46-1.26-.56-.65-.77-1.54-1.29-2.21a4.67,4.67,0,0,0-2.46-1.46c-2.45-.71-5.07-.55-7.6-.9a2.06,2.06,0,0,1-1.73-.93,1.94,1.94,0,0,1,.55-1.89,4.07,4.07,0,0,0,1.13-1.71,2.68,2.68,0,0,0-1.12-2.34,6.85,6.85,0,0,1-1.84-2,3.37,3.37,0,0,1,.65-3.44,11,11,0,0,1,2.91-2.23,30.2,30.2,0,0,0,5.53-4.18c1.1-1.09,2.11-2.78,1.29-4.09a3.29,3.29,0,0,0-1.54-1.12,11,11,0,0,0-1.69-.53,47.7,47.7,0,0,0-6.09,2.95C324.69,185.91,320.9,189.85,319.2,194.07Zm14.6-11.93a3.75,3.75,0,0,1,3.39,0,1,1,0,0,1,0,2,3.75,3.75,0,0,1-3.39,0A1,1,0,0,1,333.8,182.14ZM331,185.82a2.08,2.08,0,0,1,1.85,0,.57.57,0,0,1,0,1.08,2.08,2.08,0,0,1-1.85,0A.57.57,0,0,1,331,185.82Zm6.95,20.68a2.33,2.33,0,0,1,2.09,0,.65.65,0,0,1,0,1.22,2.33,2.33,0,0,1-2.09,0A.65.65,0,0,1,337.92,206.5Zm-2.53-.6a1.36,1.36,0,0,1,1.21,0c.33.2.33.51,0,.7a1.3,1.3,0,0,1-1.21,0C335.06,206.41,335.06,206.1,335.39,205.9Zm-8.74-10.33a1.08,1.08,0,0,1-1,0c-.27-.15-.27-.41,0-.57a1.08,1.08,0,0,1,1,0C326.92,195.16,326.92,195.42,326.65,195.57ZM325.21,198a4.85,4.85,0,0,1,4.42,0,1.36,1.36,0,0,1,0,2.57,4.85,4.85,0,0,1-4.42,0A1.36,1.36,0,0,1,325.21,198ZM323.63,191a2.69,2.69,0,0,1,2.44,0,.75.75,0,0,1,0,1.41,2.69,2.69,0,0,1-2.44,0A.75.75,0,0,1,323.63,191Zm-2.52,1.56a1.06,1.06,0,0,1,1,0c.27.16.27.42,0,.57a1.06,1.06,0,0,1-1,0C320.83,193,320.83,192.69,321.11,192.53Z" style="fill:#455a64"></path><path d="M367.61,175.43c9.51.75,18.27,3.25,25.13,7.23,5.59,3.25,9.39,7.19,11.09,11.41-1.7,4.21-5.5,8.15-11.1,11.4a47.93,47.93,0,0,1-6.68,3.19c4.58-2.65,9.2-6.63,9.22-11.95C395.31,186.18,382.62,177.09,367.61,175.43Z" style="opacity:0.1"></path><path d="M425.67,152.64l-4.74,5.29L407.7,142.65c-1.15-1.31-3.18-.54-3.61,1.38L392.6,195.81l0,.22h0a1.6,1.6,0,0,1-.79.85,4.47,4.47,0,0,1-4.09,0,1.37,1.37,0,0,1-.84-1.24l.06-.28L398.4,142c1.55-7.25,9.2-10.21,13.52-5.24Z" style="fill:#9339EA"></path><path d="M415,140.33c-.4,3.6.37,8.49,1.08,12l-5.69-6.57c-.64-3.13-1-7.1.16-10.23a7.21,7.21,0,0,1,1.35,1.21Z" style="fill:#fafafa"></path><path d="M422.11,153.88c-1.29,1.47-1.82,3.28-1.18,4.05s2.19.18,3.48-1.29,1.82-3.29,1.18-4S423.4,152.4,422.11,153.88Z" style="fill:#9339EA"></path><path d="M422.11,153.88c-1.29,1.47-1.82,3.28-1.18,4.05s2.19.18,3.48-1.29,1.82-3.29,1.18-4S423.4,152.4,422.11,153.88Z" style="opacity:0.25"></path><path d="M391.25,175.18,389.56,183c-.22,6,1.71,9.74,3.77,9.57l1.72-7.8C393,184.93,391,181.19,391.25,175.18Z" style="fill:#fafafa"></path><path d="M394.82,158.59l-1.71,7.94c-.22,6,1.82,9.69,3.87,9.52l1.73-7.79C396.66,168.42,394.6,164.6,394.82,158.59Z" style="fill:#fafafa"></path><path d="M398.4,142l-1.72,8c-.22,6,1.91,9.74,4,9.57l1.73-7.8C400.32,151.9,398.18,148,398.4,142Z" style="fill:#fafafa"></path><path d="M404.09,144,392.6,195.81l0,.22h0a1.6,1.6,0,0,1-.79.85,3.57,3.57,0,0,1-1.28.41c1.85-8.58,9.25-42.77,10.64-49.85,1.42-7.24,3.32-8.07,6.57-4.79C406.55,141.34,404.52,142.11,404.09,144Z" style="opacity:0.15"></path></g></g><g id="freepik--Bucket--inject-3"><g id="freepik--bucket--inject-3"><path d="M298.37,142.36c0-16-11.29-32-33.88-44.26C219.3,73.66,146,73.66,100.85,98.1,78.26,110.32,67,126.34,67,142.36l-7.54,2.47c0-18.21,12-36.42,36.1-50.31,48.13-27.79,126.17-27.79,174.3,0,24.06,13.89,36.09,32.1,36.09,50.31Z" style="fill:#f5f5f5"></path><path d="M67,142.36c0-16,11.3-32,33.89-44.26C146,73.66,219.3,73.66,264.49,98.1c22.59,12.22,33.88,28.24,33.88,44.26s-11.29,32-33.89,44.25c-45.18,24.44-118.44,24.44-163.63,0C78.26,174.39,67,158.37,67,142.36Z" style="fill:#e0e0e0"></path><path d="M292.18,152.13c-1.11-4,.55-8.95-2.32-11.92-1.42-1.47-3.6-2-5.14-3.3-3.45-3-2.54-8.73-5.17-12.45-2.49-3.52-7.41-4.26-11.71-3.95s-8.69,1.35-12.85.2c-5.11-1.41-8.77-5.83-13.41-8.38-12.63-6.94-29.14,1.11-42.47-4.35-8-3.28-13.74-11-22-13.54-11.79-3.53-24.33,4.74-36.46,2.68-6.49-1.1-13.89-4.89-19-.72-2.8,2.3-4.26,6.72-7.86,7.09-1.79.18-3.51-.8-5.31-.86-5.49-.19-7.4,7-10.31,11.62C93,122.47,80.72,125.57,78.58,135c-1.2,5.27,1.53,12.74-2.79,16.93-2,1.91-4.16,2.93-6,4.22,4.64,11.16,15,21.76,31,30.44,45.19,24.44,118.45,24.44,163.63,0,15.41-8.33,25.56-18.43,30.46-29.09A24.3,24.3,0,0,1,292.18,152.13Z" style="fill:#9a4a4d"></path><path d="M229.88,111.33c-3.72,2.49-6.09,6.55-7.82,10.67-.94,2.25-1.91,4.76-4.09,5.86-3.06,1.54-7.17-.45-10,1.45-2,1.33-2.73,4.2-5,5-2.52,1-5.35-1.3-7.94-.56s-3.53,4-5.74,5.54-4.88,1.19-7.44,1.11c-6.15-.2-12.23,1.13-18.24,2.44a23.38,23.38,0,0,0-6.37,2.05,14.09,14.09,0,0,1-3.45,1.72c-2,.45-3.93-.44-5.93-.51-5.57-.18-9.09,5.6-12.67,9.88-4.85,5.8-11.94,10.26-14,17.53s1.72,15,6.7,20.7a9.81,9.81,0,0,1,2.45,3.73c.42,1.59,0,3.25-.16,4.88-.48,6.27,4,11.69,8.26,16.34,1.75,1.91,3.76,4,6.35,4.1,2.4.13,4.57-1.46,7-1.78,2.71-.36,5.32.93,7.88,1.87s5.66,1.49,7.85-.13c.88-.65,1.51-1.59,2.33-2.32,3.62-3.24,9.27-1.59,14.09-2.24s9-3.78,12.89-6.79c2.75-2.14,5.77-4.79,5.72-8.27,0-1.15-.35-2.44.35-3.36s1.95-.92,3-1.21c2.63-.71,4.41-3.17,5.54-5.65s1.86-5.19,3.49-7.38c1.32-1.78,3.17-3.12,4.49-4.91a10.72,10.72,0,0,0,1.74-8.78,5,5,0,0,1-.28-2.59c.54-1.85,3-2,4.83-2.67,3.71-1.45,4.84-6,6.77-9.48A17.68,17.68,0,0,1,246,148.7c1.75-.17,3.73-.15,5-1.38,1.52-1.51,1.22-4.14,2.52-5.83s3.55-2,4.62-3.68c1.36-2.16-.09-5.07.63-7.52.38-1.3,1.36-2.4,1.47-3.75.32-3.83-5.8-4.84-7.17-8.43-.58-1.51-.2-3.26-.79-4.76a5.32,5.32,0,0,0-4.51-3c-1.78-.18-3.63.88-5.28.68-1.37-.17-2.68-1.36-4.14-1.61A11.94,11.94,0,0,0,229.88,111.33Z" style="fill:#c8856a"></path><path d="M253.07,118.11c-.58-1.51-.2-3.26-.79-4.76a5.32,5.32,0,0,0-4.51-3c-1.78-.18-3.63.88-5.28.68-1.37-.17-2.68-1.36-4.14-1.61a10.82,10.82,0,0,0-3.93.07c2.3,2.15,4.46,4.64,7.45,5.59,1.81.57,4.14.74,4.93,2.47s-.64,3.66-1.09,5.54c-.78,3.3,1.4,7.44-1,9.83-3.35,3.33-10.51-2-13.31,1.82,2.17,2,5.45,3.34,5.79,6.24s-2.43,5-5.08,5.93-5.66,1.41-7.62,3.43c-1.59,1.63-2.16,4-3.09,6s-2.62,4.19-4.9,4.23c-1.17,0-2.34-.52-3.49-.3-2.45.48-2.95,3.9-2,6.22s2.64,4.43,2.67,6.93c0,2-1.07,3.81-2.12,5.51-1.24,2-2.48,4-3.71,6-.35.57-.64,1.37-1.29,1.66-1,.45-1.54-.5-1.79-1.35s-.41-1.4-.61-2.09a2.86,2.86,0,0,0-.46-1,2.57,2.57,0,0,0-.81-.58,30,30,0,0,0-9-2.41l2.88,3.31a3.79,3.79,0,0,1,1,1.66c.24,1.27-.85,2.37-1.3,3.59a10.28,10.28,0,0,0-.31,3.33,27.35,27.35,0,0,1-.89,5.54,2.89,2.89,0,0,1-1.46,2.25A66.71,66.71,0,0,1,185,204.5a14.62,14.62,0,0,1-4.71,1.76,12,12,0,0,1-5.47-.71c-4.09-1.59-7.87-5.59-12.06-4.29-1.79.56-3.13,2-4.51,3.25-2.69,2.45-6,4.44-9.67,4.5s-7.46-2.29-8.14-5.86c-.26-1.38-.05-2.82-.24-4.21-.63-4.6-5.24-7.44-9.47-9.34-3.2-1.44-6.72-3-9-5.51a31.85,31.85,0,0,0,6.13,10.16,9.81,9.81,0,0,1,2.45,3.73c.42,1.59,0,3.25-.16,4.88-.48,6.27,4,11.69,8.26,16.34,1.75,1.91,3.76,4,6.35,4.1,2.4.13,4.57-1.46,7-1.78,2.71-.36,5.32.93,7.88,1.87s5.66,1.49,7.85-.13c.88-.65,1.51-1.59,2.33-2.32,3.62-3.24,9.27-1.59,14.09-2.24s9-3.78,12.89-6.79c2.75-2.14,5.77-4.79,5.72-8.27,0-1.15-.35-2.44.35-3.36s1.95-.92,3-1.21c2.63-.71,4.41-3.17,5.54-5.65s1.86-5.19,3.49-7.38c1.32-1.78,3.17-3.12,4.48-4.91a10.69,10.69,0,0,0,1.75-8.78,5,5,0,0,1-.28-2.59c.54-1.85,3-2,4.83-2.67,3.71-1.45,4.84-6,6.77-9.48A17.68,17.68,0,0,1,246,148.7c1.75-.17,3.73-.15,5-1.38,1.52-1.51,1.22-4.14,2.52-5.83s3.55-2,4.62-3.68c1.36-2.16-.09-5.07.63-7.52.38-1.3,1.36-2.4,1.47-3.75C260.56,122.71,254.44,121.7,253.07,118.11Z" style="fill:#af6152"></path><path d="M222.67,153.77a3.11,3.11,0,0,0-1.83,2.37,7.23,7.23,0,0,1-.75,2.07c-.71,1-1.69.63-2.75.56-1.52-.11-3.37-.33-4.76.42s-1.84,2.23-2.46,3.6c-1.82,4-6.56.21-9.58-.15a11.62,11.62,0,0,0-5.39.61,11.25,11.25,0,0,0-4,2.73c-.15.14-.15.72.13.54a12.67,12.67,0,0,1,11.62-.75c2.8,1.3,6.83,3.44,9.17.13.81-1.14.92-3.05,2.15-3.84s3.06.07,4.47-.4a4,4,0,0,0,2.24-2.43c.6-1.51.32-3.76,1.89-4.64C223.05,154.44,223.07,153.64,222.67,153.77Z" style="fill:#9a4a4d"></path><path d="M240.21,121.37a9.65,9.65,0,0,0,1.74-3.62,16.16,16.16,0,0,1,1-3.8,8.58,8.58,0,0,1,1.32-1.74,18.09,18.09,0,0,1,1.68-1.71,11,11,0,0,1-3.41.52,4.25,4.25,0,0,1-1.06-.31l-.16.2a4.94,4.94,0,0,0-1,2.19,29.41,29.41,0,0,0,.19,3.37,11.15,11.15,0,0,1-1.17,5.29C239.65,121.93,240,121.64,240.21,121.37Z" style="fill:#9a4a4d"></path><path d="M252,145.69c-.5-.05-1-.08-1.48-.11-2.4-.13-5.29.07-7.35-1.37-1.12-.78-1.69-2.2-2.45-3.27a14.19,14.19,0,0,0-2.91-3.08,11.51,11.51,0,0,0-3.88-1.74c-1.53-.45-3.8-1.25-4-3.1-.06-.48-.54-.33-.53.09a3.7,3.7,0,0,0,.87,2.75,9.11,9.11,0,0,0,3.63,2.36,9.86,9.86,0,0,1,2.47,1.24,6.08,6.08,0,0,1,1.32,2.56,12.17,12.17,0,0,0,2.28,3.74,10.8,10.8,0,0,0,5.73,3l.39-.07c1.75-.17,3.73-.15,5-1.38A4.29,4.29,0,0,0,252,145.69Z" style="fill:#9a4a4d"></path><path d="M205.47,198.85a5.39,5.39,0,0,0,.44-4c-.5-1.36-1.76-2.08-2.5-3.27-1-1.54-.68-3.61-1-5.33-.46-2.65-2.21-4.37-4.51-5.58a70.31,70.31,0,0,0-8.91-3.37c-.25-.09-.36.44-.15.53,2.69,1.14,5.51,2.14,8.1,3.52,1.34.71,2.88,1.68,3.06,3.32s-.45,3.24-.27,4.91a8.4,8.4,0,0,0,1.34,3.69c.4.6.95,1,1.39,1.59s.38.53.2,1.13c-.37,1.24-1,2.33-.91,3.67a5.63,5.63,0,0,0,.65,2.19,2.5,2.5,0,0,1,.44-1.56,3.91,3.91,0,0,1,2.47-1.08Z" style="fill:#9a4a4d"></path><path d="M201.63,134.88c2.32,1.17,2.91,4,5.24,5.22,2.89,1.49,5.28-.44,8-1.17,1.64-.43,4-.81,5.51.27a4.82,4.82,0,0,1,1.48,1.87,12.37,12.37,0,0,0,.64,1.83.09.09,0,0,0,.14,0c1.31-1.83-1.42-4.56-2.69-5.57-2.61-2.06-5.61-1.91-8.59-.81-1.54.57-3.34,1.52-4.53,0a22.27,22.27,0,0,0-2.46-3.06,4.13,4.13,0,0,1-1.41.93,4.43,4.43,0,0,1-2.17.17C201.08,134.65,201.37,134.75,201.63,134.88Z" style="fill:#9a4a4d"></path><path d="M127.41,168c1.08,1,1.14,2.59,2,3.74a4.85,4.85,0,0,0,3.54,1.84,9.91,9.91,0,0,0,4.22-.52c1.51-.59,2.56-2,4.11-2.47,3.2-1,6.44,0,7.44,3.46,0,.11.13,0,.12-.1a8.16,8.16,0,0,0-5.1-6,6.49,6.49,0,0,0-4.59.22c-1.88.79-3.08,2-5.22,2.2-.58.05-1.9.29-2.39-.11s-.66-1.67-1-2.24a8.6,8.6,0,0,0-3.35-3.39l-.36-.18c-.68.72-1.33,1.45-1.94,2.21A5.51,5.51,0,0,1,127.41,168Z" style="fill:#9a4a4d"></path><path d="M141,192.54a20.92,20.92,0,0,1-8.53-2.45c-3.49-1.91-6.84-4.39-10.61-5.69a28.5,28.5,0,0,0,1.67,3.65c3.46,1.53,6.62,3.94,10,5.48a18.69,18.69,0,0,0,7.54,1.7c2.69.05,5.82-.41,8.29.86.31.16.41-.53.22-.69C147.11,193.26,144.19,192.82,141,192.54Z" style="fill:#9a4a4d"></path><path d="M171.22,150.41a21.32,21.32,0,0,1-7.88.18c-3.21-.69-5.16-2.73-7.63-4.68l-.06,0a7,7,0,0,1-1.85.78,5.81,5.81,0,0,1-2,.08,30.79,30.79,0,0,1,5.43,3.1c3.95,2.68,9.7,4.11,14,1.45C171.5,151.14,171.62,150.34,171.22,150.41Z" style="fill:#9a4a4d"></path><path d="M189.7,157.22a1.38,1.38,0,0,0-.75-1.07,2.18,2.18,0,0,0-1.83.15,2.8,2.8,0,0,0-.73.55,5.59,5.59,0,0,0-.33.47c-.25,0-.54-.16-.77-.22a11.71,11.71,0,0,0-1.17-.28,3.09,3.09,0,0,0-2,.25,3.44,3.44,0,0,0-1.89,3.33c0,.3.38.73.54.24A2.86,2.86,0,0,1,182.4,159a3.3,3.3,0,0,1,2.5.2c.87.34,2.17,1,2.72-.13a1.28,1.28,0,0,1,.54-.61,3.51,3.51,0,0,1,1.12-.25C189.69,158.17,189.75,157.53,189.7,157.22Z" style="fill:#9a4a4d"></path><path d="M178.44,165.63a2.71,2.71,0,0,0-1.57-.48,2.1,2.1,0,0,0-1.38,1,28.62,28.62,0,0,0-1.55,2.62,3.29,3.29,0,0,1-2.13,1.71,28.11,28.11,0,0,1-3,.26,4.46,4.46,0,0,0-4.13,3.41c-.52,2,0,4.58-1.69,6.15-.17.16-.14.81.17.6,1.49-1,1.89-2.91,2.71-4.39a6.41,6.41,0,0,1,2.08-2.42,5,5,0,0,1,2.58-.48c2,0,4-.25,5.24-2.06A24.14,24.14,0,0,0,177,169a5.74,5.74,0,0,1,.76-1.13,1.85,1.85,0,0,0,.49-.77c.09-.36,0-.72.19-1C178.53,165.94,178.57,165.71,178.44,165.63Z" style="fill:#9a4a4d"></path><path d="M182.65,205.77a6.42,6.42,0,0,0-5.06-1.08c-1,.14-2.4.67-3.38.29s-1.64-1.41-2.3-2.06A12.39,12.39,0,0,0,167.2,200a5.19,5.19,0,0,0-2.57-.11,12.85,12.85,0,0,0-2.94.57c-.07,0-.13.23,0,.24a10.78,10.78,0,0,1,3.13.65,30.46,30.46,0,0,1,3,1.5,8.59,8.59,0,0,1,2.15,1.69c.59.65,1.08,1.4,1.72,2a5.05,5.05,0,0,0,5,1.55,9,9,0,0,0,1.21-.58,7.9,7.9,0,0,1,2-.57,12.87,12.87,0,0,0,2.68-.69A.32.32,0,0,0,182.65,205.77Z" style="fill:#9a4a4d"></path><path d="M134.77,175.84a20.18,20.18,0,0,1-3.41-.52,4.51,4.51,0,0,1-2.69-1.25c-.62-.76-1-2.08-2-1.87a1.45,1.45,0,0,0-.75.54,6.54,6.54,0,0,0-.61,6.71,15.93,15.93,0,0,0,4.47,5.44c2.16,1.89,4.6,3.69,7.44,4.09a7.08,7.08,0,0,0,5.49-1.56c1.15-1,1.33-2.32,2-3.6a5.11,5.11,0,0,1,4.44-2.76c1.24-.15,3.88-.51,3.47-2.4-.45-2.08-3.65-1.19-4.73-2.61a12.41,12.41,0,0,1-.72-1.35c-1.24-2.22-5.38-3.24-7.38-1.53-1.18,1-1.12,2.06-2.85,2.49A8,8,0,0,1,134.77,175.84Z" style="fill:#fff;opacity:0.2"></path><path d="M145.6,151a58.5,58.5,0,0,0-7.58,8.38,5.79,5.79,0,0,0-1.18,2.23,2.08,2.08,0,0,0,.86,2.23,2.62,2.62,0,0,0,1.3.26,20.23,20.23,0,0,1,4.47.05,8,8,0,0,1,4.13,2.9c1.1,1.31,2,2.79,3.16,4a4.83,4.83,0,0,0,3.56,1.84,5.18,5.18,0,0,0,2.91-1.41c1.57-1.29,3.05-2.63,4.71-3.8a6.69,6.69,0,0,1,4.6-1.28,10.3,10.3,0,0,0,3.16-.51,2,2,0,0,0,.91-.52,1.88,1.88,0,0,0,.36-.72c1.28-4-.79-6-4.82-4.83A32.7,32.7,0,0,1,160,161a3.13,3.13,0,0,1-1.43-.09,2.9,2.9,0,0,1-1.51-1.77c-1-2.61-.17-6.66-3.19-7.92C151.62,150.28,147.66,149.15,145.6,151Z" style="fill:#fff;opacity:0.2"></path><path d="M199.71,138.35a4.43,4.43,0,0,0-4.39.19c-1.56,1.13-1.9,3.38-3.33,4.67s-3.83,1.31-5.89,1.29-4.44.3-5.55,2a19.9,19.9,0,0,1,9.47,2.05c2.24,1.11,4.6,2.7,7,2.06s4.19-3.16,6.47-2.49c1.06.31,1.8,1.26,2.76,1.8,2.46,1.38,5.56-.27,7.44-2.37a8.44,8.44,0,0,1,1.88-1.8c1.32-.77,3-.53,4.47-.28a3.45,3.45,0,0,0-2.77-3.33,7.43,7.43,0,0,0-4.59.68,10.92,10.92,0,0,1-4.16,1.34C204.65,144.21,202.87,139.84,199.71,138.35Z" style="fill:#fff;opacity:0.2"></path><path d="M252.32,94.74c-2.15.33-3.48,3.07-5.65,3a4.44,4.44,0,0,1-2.42-1.15,66.23,66.23,0,0,0-6.53-5.06c-2.37-1.41-5.25-2.26-7.9-1.49-1.11.32-2.14.91-3.27,1.18-3.13.72-6.79-1.13-9.46.65s-2.4,5.44-3.85,8.14c-1.05,2-3,3.44-3.72,5.57-1,3,.85,6.14,1.58,9.22,1.4,6-1.39,12.64,1.06,18.28a19.42,19.42,0,0,0,3.59,5.06,103.54,103.54,0,0,0,10.88,10.37l-6,1.06a4.72,4.72,0,0,0-2.27.82,4,4,0,0,0-1.14,2.87c-.19,2.91.68,5.78.71,8.69.05,4.21-1.64,8.23-2.43,12.36s-.43,9,2.78,11.71c.79.66,1.71,1.16,2.54,1.76,3.1,2.25,4.86,5.86,6.43,9.35a12.35,12.35,0,0,0,3.26,5c2.95,2.3,7.14,1.43,10.85,1a36.8,36.8,0,0,1,11.89.62c2.37.52,4.86,1.27,7.14.47s3.81-3,5.51-4.8c4-4.26,9.82-6.5,14-10.63,3.93-3.87,6.22-9.2,10.32-12.89,1.58-1.43,3.43-2.6,4.75-4.28s2-4.11.92-6c-1.24-2.1-4.11-2.5-5.94-4.12-3-2.64-2.43-7.7-5.08-10.69-1.3-1.47-3.2-2.24-4.68-3.51a17.57,17.57,0,0,1-3.86-5.71l-3.35-6.71a1.57,1.57,0,0,1-.23-1.06c.17-.55.87-.71,1.44-.71,3.7,0,7.88,2.47,10.75.14.53-.43.95-1,1.5-1.41,2.25-1.67,5.64-.1,8.18-1.3,1.46-.68,2.37-2.15,3.64-3.14a22.43,22.43,0,0,1,4.34-2.21,15.81,15.81,0,0,0,8.72-13.67,26.12,26.12,0,0,1-20.74,3.64c-2.1-.53-4.14-1.33-6.28-1.71a16.54,16.54,0,0,0-6.31.11,5.76,5.76,0,0,1-2.29.23c-3.15-.61-5.73-4.63-8.54-6.15-1.85-1-4.07-1.12-5.87-2.16C258,103.61,256.6,93.67,252.32,94.74Z" style="fill:#c8856a"></path><path d="M284.82,150.79c-1.3-1.47-3.2-2.24-4.68-3.51a17.57,17.57,0,0,1-3.86-5.71l-3.35-6.71a1.57,1.57,0,0,1-.23-1.06,1,1,0,0,1,.85-.64l-.42-.51a21,21,0,0,0-4.3-4.18c-7.15-4.75-15.44-2.42-21.53-8.42,2.71,2.67,3.47,7.3,6.17,10a9.42,9.42,0,0,0,3.42,2,16,16,0,0,1,3.77,1.77c2,1.48,2.44,4.37,3.93,6.42,2.46,3.42,7.39,4,10.47,6.83,1.69,1.57,2.74,3.76,4.56,5.18,2,1.58,4.7,2,7.21,2.65A10.49,10.49,0,0,0,284.82,150.79Z" style="fill:#af6152"></path><path d="M265.79,163.37a12.2,12.2,0,0,0-4.92-2.73c-2.39-.53-4.22.05-6.26-1.67-3-2.52-6.23-3.38-10.11-3.67a26.74,26.74,0,0,1-7.24-1.49,33.52,33.52,0,0,1-6.59-2.86c-1.38-.87-2.8-1.66-4.22-2.45l-3.61.63c.48.31,1,.61,1.44.94.94.67,1.84,1.4,2.77,2.09,4.85,3.58,11,6.51,17.16,6.7,1.62,0,3.29-.08,4.9,0,2.21.15,3.65,1.61,5.28,2.87,3.45,2.68,7.63-.25,11.23,2.13C265.84,164,266,163.5,265.79,163.37Z" style="fill:#9a4a4d"></path><path d="M253.8,122c-3.49-1.31-6.39-4.55-8.52-7.51-.24-.32-.45.37-.36.56,2.2,4.48,4,9.9,9.61,10.86l4.49.78c5.51,1,9.64,4,13.69,7.39a1.07,1.07,0,0,1,0-.25c.17-.55.87-.71,1.44-.71a13.47,13.47,0,0,1,2.49.28l-1.41-1.54c-2.18-2.39-4.37-4.53-7.41-5.75a56.06,56.06,0,0,0-10.05-3.15A25.4,25.4,0,0,1,253.8,122Z" style="fill:#9a4a4d"></path><path d="M295.31,164.9a6,6,0,0,1-1.66,4c-2.07,2-5.38,1.87-8.29,2s-6.42,1.2-7,4.06c-.31,1.53.34,3.24-.4,4.63-1.32,2.5-5.18,1.3-7.82,2.33a14.69,14.69,0,0,0-3.33,2.12c-.91.73-1.41,2-2.65,2.32a2.55,2.55,0,0,1-1.64-.28c-1.81-.92-2.58-3-3.38-4.91s-2.11-3.89-4.14-4.05a11.87,11.87,0,0,1,1.88,5.68,2.4,2.4,0,0,1-.19,1.3c-.23.44-.69.72-1,1.13a3.32,3.32,0,0,0-.13,2.56c.32,1.41,1.28,3.18.86,4.69-.65,2.3-3.77,1.36-5.32.52a34.27,34.27,0,0,0-3.11-1.88c-2.67-1.11-3.34,1.15-5.15,2.43s-4.53,2.59-6.53,1a6.2,6.2,0,0,1-1.18-1.37L230,185.79a10.09,10.09,0,0,0-1.87-2.19c-2.32-1.84-5.26.09-7.69-1.15-2.12-1.08-3.5-4-4.16-6.12a22.38,22.38,0,0,1-.63-2.81c-.05.25-.11.5-.16.75-.79,4.13-.43,9,2.78,11.71.79.66,1.71,1.16,2.54,1.76,3.1,2.25,4.86,5.86,6.43,9.35a12.35,12.35,0,0,0,3.26,5c2.95,2.3,7.14,1.43,10.85,1a36.8,36.8,0,0,1,11.89.62c2.37.52,4.86,1.27,7.14.47s3.81-3,5.51-4.8c4-4.26,9.82-6.5,14-10.63,3.93-3.87,6.22-9.2,10.32-12.89,1.58-1.43,3.43-2.6,4.75-4.28s2-4.11.92-6A3.68,3.68,0,0,0,295.31,164.9Z" style="fill:#af6152"></path><path d="M227.25,196.65c-1.08-2.24-1.85-4.62-3.28-6.68a17.39,17.39,0,0,0-4.11-3.78c-1.48-1.09-3.14-2.2-3.78-4-.85-2.4-.06-5.44.42-7.85s1.42-4.95,2-7.47a19.81,19.81,0,0,0-.16-7.24c-.35-2.21-1.2-5.29-.19-7.45.6-1.29,2-1.26,3.19-1.51s2.77-.43,3.69-1.29c.17-.15.15-.62-.1-.71a8.44,8.44,0,0,0-2.75-.17,17.84,17.84,0,0,0-3.5.27,3.71,3.71,0,0,0-3,3.25c-.85,4.22,1.22,8.42.75,12.65a49.34,49.34,0,0,1-1.67,6.51,41,41,0,0,0-1.2,6.68,9.58,9.58,0,0,0,3.74,8.83c1.81,1.47,3.9,2.55,5.65,4.09a9,9,0,0,1,1.88,2.6c.67,1.25,1.43,2.44,2.08,3.71C227.07,197.53,227.41,197,227.25,196.65Z" style="fill:#9a4a4d"></path><path d="M241,175.82a6.52,6.52,0,0,0-5.29-2.21,5,5,0,0,1-2.75-.27c-.4-.26-.41-.68-.49-1.13a5.66,5.66,0,0,0-.5-1.64c-1.15-2.19-3.7-2-5.77-1.62-.56.11-.55,1.4,0,1.31a7,7,0,0,1,3.48,0,2.08,2.08,0,0,1,1.24,1,13.69,13.69,0,0,1,.29,2.13c.47,2,2,2.65,3.92,2.62s3.32,0,4.68,1.3a4.68,4.68,0,0,1,1.25,1.93,9.49,9.49,0,0,0,.4,1.28,4.88,4.88,0,0,1,.36,1c0,.13.17.25.28.1a3.6,3.6,0,0,0,.74-1.49,4.33,4.33,0,0,0-.34-1.77A7.77,7.77,0,0,0,241,175.82Z" style="fill:#9a4a4d"></path><path d="M214.44,113.55c2.5-3.71,6.76-7.33,4.56-12.27-.19-.43-.53.19-.45.45,1.15,3.51-2.92,6.29-5.45,7.85a17.49,17.49,0,0,0-2.92,2.21c.34,1,.68,2,.92,3a21.09,21.09,0,0,1,.36,5.73A24.06,24.06,0,0,1,214.44,113.55Z" style="fill:#9a4a4d"></path><path d="M252,103.69a.24.24,0,0,0-.06.19,1.17,1.17,0,0,0,.55.73,8.38,8.38,0,0,0,2.56,1.53,5.67,5.67,0,0,0,3,0,12.78,12.78,0,0,0,2.65-1.07,8,8,0,0,1-1.39-1.8,8.61,8.61,0,0,1-2.86,1.24c-1.61.31-2.76-.45-4.24-.86A.29.29,0,0,0,252,103.69Z" style="fill:#9a4a4d"></path><path d="M267,198.27a10.66,10.66,0,0,0-1.29-2c-1-1.29-2.68-2-3.67-3.29s-.54-3.71-.92-5.31a25.87,25.87,0,0,0-1.86-5.21,32.74,32.74,0,0,0-6.71-9.24c-.42-.4-.63.57-.46.84,1.93,3.16,4.29,6.08,5.69,9.53a14.58,14.58,0,0,1,.92,5.51,10.68,10.68,0,0,0,.77,4.65c1.25,2.53,4.24,3.46,5.29,6.11a4.88,4.88,0,0,1,.18.54c.31-.35.61-.7.93-1S266.6,198.62,267,198.27Z" style="fill:#9a4a4d"></path><path d="M247.2,150.31c.76.17.81-1.29.3-1.58-2.22-1.28-2.82-4.32-4.93-5.81-2.34-1.65-5.21-.79-7.8-1.54-3.05-.89-2.05-4.78-3.89-6.79s-4.73-3-7.39-3.71c-.35-.09-.44.77-.08.87a19.76,19.76,0,0,1,4.39,1.73,5.48,5.48,0,0,1,2.64,4c.54,2.65,1.29,5.44,4.16,6.36,2.41.77,5.69-.18,7.7,1.61C244.13,147.07,244.54,149.7,247.2,150.31Z" style="fill:#9a4a4d"></path><path d="M244,135a5.37,5.37,0,0,1,2.12.78,3.4,3.4,0,0,1,1.3,1.56,14.48,14.48,0,0,0,.61,2.11,3.73,3.73,0,0,0,2.56,2.3,10.11,10.11,0,0,1,3.17.79.23.23,0,0,0,.2,0l.18-.1a.37.37,0,0,0,.13-.33c-.06-1.3-1.78-1.48-2.78-1.71a3.43,3.43,0,0,1-1.69-.7c-.48-.47-.26-1.39-.41-2-.34-1.38-1.26-3.19-2.91-3.17a3.41,3.41,0,0,1-.9-.06c-.34-.08-.69-.14-1-.2l-2.78-.52c-.28,0-.36.59-.09.66Z" style="fill:#9a4a4d"></path><path d="M228.78,94.6c-2.07.6-4.23-.37-6.37-.63a3.22,3.22,0,0,0-2.12.31,1.42,1.42,0,0,0-.54,1.89,2.19,2.19,0,0,0,1,.65l4.55,1.8a5.53,5.53,0,0,1,1.68.89c1.79,1.56,1,4.5,1.73,6.76a5,5,0,0,0,7.09,2.6c1.43-.87,2.37-2.45,3.9-3.11a5.34,5.34,0,0,1,3.33-.16c1.43.34,3.16,1,4.18-.1s.27-2.88-.94-3.69-2.71-1-4-1.63c-1.81-.88-3.1-2.51-4.48-4C234.59,92.87,232.78,93.43,228.78,94.6Z" style="fill:#fff;opacity:0.2"></path><path d="M258.85,110.93c1,2.29,3.78,3,5.9,4.37,2.82,1.75,4.61,4.71,6.88,7.14s5.62,4.44,8.78,3.42c1.65-.52,3-1.83,4.78-1.91,2.28-.11,4.24,2,6.51,1.84,1.84-.1,3.25-1.58,4.81-2.56,1.74-1.08,3.77-1.58,5.61-2.48s3.59-2.43,3.83-4.46a18.47,18.47,0,0,1-13,1c-2.4-.71-4.7-1.92-7.19-2.07s-5,.8-7.57.91a11.52,11.52,0,0,1-6.84-1.92c-1.77-1.18-3.23-2.71-5.3-3.33C265.38,110.65,258.71,110.61,258.85,110.93Z" style="fill:#fff;opacity:0.2"></path><path d="M215.62,131.92c-.68-3.18-3.17-8-.53-10.87,3.29-3.6,10.06,1.82,12.38,4.44,1.11,1.26,2.12,2.73,3.67,3.37,1,.39,2.07.41,3.05.78,3.18,1.21,2,4,3.45,6.24,1,1.52,2.87,2.09,4.56,2.74s3.49,1.75,3.75,3.54c-.7-1.52-2.58-2-4.24-2.16s-3.45,0-4.87-.88a10.55,10.55,0,0,1-2.72-3.2,16.6,16.6,0,0,0-6.87-5.57c-1.36-.6-3.81-1.91-5.33-1.46-3,.88-.44,4.75,1.56,5.46,1.25.43,2.64.65,3.63,1.53,2,1.82,1.23,5.38,3,7.48,2,2.39,5.92,1.55,8.63,3.08,1.93,1.09,3,3.26,4.86,4.51,2.72,1.84,6.77,1.46,8.88,4-3.52-1.48-7.43-1.72-11.13-2.65-8.41-2.13-15.46-7.75-21.9-13.56a12.58,12.58,0,0,1-2.41-2.64A12.77,12.77,0,0,1,215.62,131.92Z" style="fill:#fff;opacity:0.2"></path><path d="M226.64,175.54a2.62,2.62,0,0,0-.64-1.45c-.39-.42-.94-.67-1.37-1.06-1.21-1.11-1.17-3-1-4.63A1.27,1.27,0,0,1,225,167a16.12,16.12,0,0,1,4.84-.33,5.41,5.41,0,0,1,4,2.42,9.48,9.48,0,0,0,.93,1.65c1.19,1.33,3.4.7,4.89-.28s3.09-2.26,4.84-1.92c.72.14,1.36.55,2.06.76,2.55.77,5.06-1.14,7.66-1.71,2.25-.49,4.58,0,6.82.56a13.19,13.19,0,0,0-7.36-3.07c-1.33-.12-2.75,0-3.91-.71a25.15,25.15,0,0,1-2.19-1.82c-2.21-1.61-5.25-1-8-1.06a16.15,16.15,0,0,1-8.94-2.87c-2.3-1.61-5-3.73-8-3.83a2.7,2.7,0,0,0-1.59.37c-.93.66-.93,2-.76,3.16.24,1.61,1.34,3.77,1.17,5.34-.18,1.79-1.83,3.61-2.27,5.39a18.11,18.11,0,0,0,0,7.26C220.09,180.92,227.34,180.44,226.64,175.54Z" style="fill:#fff;opacity:0.2"></path><path d="M275.88,170.56c-.81,1-2.25,1.3-3.18,2.21-1.66,1.62-1,4.36-1.26,6.67,1.23.34,2.38-.84,2.82-2s.51-2.55,1.23-3.61a6.8,6.8,0,0,1,1.2-1.26c2.23-1.95,4.7-3.9,7.63-4.25a50.06,50.06,0,0,1,5.05.09c1.69,0,3.53-.57,4.41-2-3.36,0-5.4-2-7.49-4.37-1.51-1.68-3-3.81-5.58-3.16-2.15.55-1.18,1.22-1.95,2.54-.5.87-1.46,1.68-1.9,2.65C275.94,166.07,277.36,168.68,275.88,170.56Z" style="fill:#fff;opacity:0.2"></path><path d="M70.88,151.74c.05-2.17,2.59-3.85,2.21-6a4.46,4.46,0,0,0-1.45-2.24,65.82,65.82,0,0,1-5.86-5.83c-1.71-2.16-2.92-4.92-2.5-7.64.17-1.15.63-2.24.75-3.4.31-3.2-2-6.58-.58-9.46s5.09-3.09,7.58-4.86c1.83-1.31,3-3.44,5-4.41,2.86-1.37,6.19,0,9.35.37,6.12.63,12.34-3,18.26-1.3a19.53,19.53,0,0,1,5.48,2.91,103.75,103.75,0,0,1,11.68,9.45l.27-6.12a4.81,4.81,0,0,1,.52-2.36,4,4,0,0,1,2.71-1.5c2.85-.56,5.82-.07,8.71-.42,4.18-.49,7.94-2.68,11.94-4s8.86-1.59,12,1.24c.76.7,1.37,1.54,2.07,2.29,2.64,2.78,6.44,4.07,10.1,5.17,1.92.58,3.92,1.19,5.34,2.6,2.66,2.63,2.34,6.9,2.4,10.63A36.53,36.53,0,0,0,179,138.59c.82,2.28,1.88,4.65,1.38,7s-2.5,4.17-4,6.08c-3.7,4.56-5.18,10.58-8.74,15.25-3.33,4.39-8.32,7.35-11.45,11.89-1.22,1.75-2.14,3.73-3.63,5.26s-3.82,2.52-5.78,1.68c-2.25-1-3-3.76-4.86-5.36-3-2.63-8-1.42-11.26-3.66-1.62-1.1-2.63-2.88-4.08-4.19a17.44,17.44,0,0,0-6.16-3.09L113.32,167a1.51,1.51,0,0,0-1.08-.09c-.53.24-.59,1-.52,1.52.47,3.67,3.47,7.5,1.52,10.64-.36.59-.86,1.07-1.2,1.67-1.37,2.45.62,5.61-.23,8.28-.49,1.53-1.83,2.63-2.66,4a22.74,22.74,0,0,0-1.62,4.59A15.81,15.81,0,0,1,95.09,208,26.1,26.1,0,0,0,96,187c-.8-2-1.85-3.93-2.5-6a16.44,16.44,0,0,1-.71-6.27,5.73,5.73,0,0,0-.06-2.3c-1-3.05-5.33-5.1-7.2-7.68-1.24-1.7-1.64-3.9-2.9-5.54C80.41,156.26,70.37,156.12,70.88,151.74Z" style="fill:#c8856a"></path><path d="M130.64,176.75c-1.62-1.1-2.63-2.88-4.08-4.19a17.44,17.44,0,0,0-6.16-3.09L113.32,167a1.51,1.51,0,0,0-1.08-.09,1.05,1.05,0,0,0-.53.92l-.56-.35a21.24,21.24,0,0,1-4.7-3.72c-5.62-6.48-4.39-15-11.12-20.27,3,2.35,7.69,2.5,10.71,4.84a9.24,9.24,0,0,1,2.42,3.13,15.89,15.89,0,0,0,2.23,3.51c1.74,1.84,4.65,1.86,6.88,3.07,3.7,2,4.89,6.81,8.13,9.5,1.77,1.47,4.08,2.24,5.71,3.86,1.83,1.81,2.56,4.41,3.57,6.8A10.6,10.6,0,0,1,130.64,176.75Z" style="fill:#af6152"></path><path d="M140.68,156.26a12.16,12.16,0,0,1-3.35-4.53c-.84-2.3-.49-4.19-2.46-6-2.89-2.64-4.15-5.75-4.94-9.55a27,27,0,0,0-2.41-7,33.73,33.73,0,0,0-3.69-6.16c-1-1.25-2-2.57-3-3.87,0-1.22.11-2.44.16-3.66.36.44.73.88,1.12,1.3.78.85,1.62,1.65,2.42,2.48,4.18,4.35,7.89,10.12,8.86,16.16.26,1.6.34,3.27.65,4.85.43,2.18,2.07,3.41,3.53,4.87,3.1,3.08.73,7.6,3.56,10.87C141.33,156.22,140.83,156.4,140.68,156.26Z" style="fill:#9a4a4d"></path><path d="M98.08,149.7c-1.76-3.3-5.35-5.75-8.56-7.48-.34-.19.32-.5.52-.43,4.72,1.61,10.33,2.73,12,8.13l1.35,4.35c1.66,5.35,4.57,9.9,10.12,11.71-.08,0-1.21.91-1.28.94-.53.24-.59,1-.52,1.52a12.87,12.87,0,0,0,.6,2.43l-1.71-1.2c-2.65-1.85-5-3.74-6.66-6.6a57.21,57.21,0,0,1-4.42-9.57A25.23,25.23,0,0,0,98.08,149.7Z" style="fill:#9a4a4d"></path><path d="M146,185.34a6.06,6.06,0,0,0,3.78-2.17c1.77-2.32,1.16-5.57.9-8.48s.36-6.51,3.12-7.47c1.48-.51,3.26-.09,4.54-1,2.31-1.64.62-5.31,1.31-8.06a14.89,14.89,0,0,1,1.67-3.57c.6-1,1.84-1.66,1.95-2.93a2.43,2.43,0,0,0-.48-1.59c-1.15-1.67-3.35-2.16-5.31-2.72s-4.12-1.59-4.55-3.58a11.93,11.93,0,0,0,5.88,1.13,2.35,2.35,0,0,0,1.27-.36c.4-.29.62-.78,1-1.11a3.31,3.31,0,0,1,2.52-.45c1.44.13,3.32.85,4.77.24,2.19-.94.86-3.91-.17-5.34a34,34,0,0,1-2.27-2.84c-1.45-2.5.71-3.46,1.74-5.42s2-4.83.17-6.61a6.41,6.41,0,0,0-1.52-1l-8-4.18a10.2,10.2,0,0,1-2.41-1.57c-2.13-2.07-.59-5.24-2.13-7.48-1.35-2-4.4-3-6.61-3.34a21.26,21.26,0,0,0-2.87-.26L145,105c4-1.32,8.86-1.59,12,1.24.76.7,1.37,1.54,2.07,2.29,2.64,2.78,6.44,4.07,10.1,5.18a12.24,12.24,0,0,1,5.34,2.59c2.66,2.63,2.34,6.89,2.4,10.63A36.53,36.53,0,0,0,179,138.59c.82,2.28,1.88,4.65,1.38,7s-2.5,4.17-4,6.08c-3.7,4.56-5.18,10.58-8.74,15.25-3.33,4.39-8.32,7.35-11.45,11.89-1.22,1.75-2.14,3.73-3.63,5.26s-3.82,2.52-5.78,1.68A3.62,3.62,0,0,1,146,185.34Z" style="fill:#af6152"></path><path d="M179,138.59c4.47,9.11-.9,9.87-4.61,17-2.21,4.16-3.74,8.94-6.83,12.68s-7.1,6.54-9.92,10.18c-2,2.52-3,5.91-6.09,7.72a5.72,5.72,0,0,1-5.59.43c-1.68-.85-2.58-2.47-3.55-3.86-2.75-4.46-8.47-2.26-12.46-5.1a21.19,21.19,0,0,1-3.49-3.59c-1.85-2.16-4.86-3-7.86-4.08l-4.49-1.59L113,168c-.58-.23-.44,0-.26-.23-.06,3.51,3.12,7.13,1.69,10.84a7.79,7.79,0,0,1-1.42,2.19c-1.35,1.92-.23,4-.25,6.41.28,2.67-2.12,4.52-3.32,6.54-1,2.1-1.36,4.56-2.68,6.6A15.85,15.85,0,0,1,95.09,208,15.88,15.88,0,0,0,106,199.93c1.19-2.07,1.33-4.52,2.33-6.73s3.19-3.46,2.91-5.93c-.14-2.17-1.31-5.33.36-7.48l.71-.94c1.83-3-1-6.31-1.49-9.52-.61-2.05.4-4.23,2.85-3.29l1.13.38,4.51,1.52c3.07,1.05,6.52,2,8.81,4.62a20.61,20.61,0,0,0,3.11,3.23c3.27,2.06,8.11.93,11.28,3.68,1.77,1.39,2.75,4.3,4.47,5.19,4.59,1.64,6.66-4.51,9.08-7.42a56.2,56.2,0,0,1,6.94-6.72c5.06-4,7.35-9.9,10.41-15.45,4-6.89,9.37-7.19,5.59-16.48Z" style="fill:#9a4a4d"></path><path d="M149.83,130.07a6.49,6.49,0,0,1-2.87-5,5.17,5.17,0,0,0-.63-2.69c-.31-.37-.73-.32-1.18-.34a5.71,5.71,0,0,1-1.69-.29c-2.33-.86-2.51-3.4-2.36-5.51.05-.57,1.32-.73,1.31-.17a6.86,6.86,0,0,0,.46,3.45,2.11,2.11,0,0,0,1.12,1.1,13.94,13.94,0,0,0,2.15,0c2,.21,2.89,1.69,3.11,3.55s.43,3.29,1.89,4.47a4.58,4.58,0,0,0,2.07,1,9.85,9.85,0,0,1,1.32.23,4.52,4.52,0,0,0,1,.23c.13,0,.27.14.14.26a3.59,3.59,0,0,1-1.39.93,4.08,4.08,0,0,1-1.8-.11A7.54,7.54,0,0,1,149.83,130.07Z" style="fill:#9a4a4d"></path><path d="M84.65,111.76c-3.35,2.95-6.4,7.64-11.58,6.1-.45-.14.12-.56.39-.51,3.63.69,5.86-3.7,7.08-6.42a17.55,17.55,0,0,1,1.82-3.17c1,.2,2,.42,3.07.52a20.84,20.84,0,0,0,5.72-.38A23.8,23.8,0,0,0,84.65,111.76Z" style="fill:#9a4a4d"></path><path d="M79.71,150.28a.25.25,0,0,1,.18-.08,1.12,1.12,0,0,1,.8.44A8.55,8.55,0,0,1,82.54,153a5.68,5.68,0,0,1,.4,3,11.89,11.89,0,0,1-.72,2.77,7.4,7.4,0,0,0-2-1.15,8.66,8.66,0,0,0,.87-3c.1-1.65-.81-2.68-1.4-4.1A.29.29,0,0,1,79.71,150.28Z" style="fill:#9a4a4d"></path><path d="M175.44,153a11.28,11.28,0,0,1-2.17-1c-1.41-.87-2.34-2.4-3.74-3.23s-3.75-.05-5.38-.22a26.23,26.23,0,0,1-5.41-1.17,32.87,32.87,0,0,1-10-5.47c-.45-.36.49-.69.78-.56,3.38,1.51,6.58,3.46,10.18,4.41a14.76,14.76,0,0,0,5.58.21,10.55,10.55,0,0,1,4.71.16c2.67.91,4,3.75,6.74,4.46.19.05.37.07.56.11-.31.35-.62.69-.9,1.05S175.74,152.52,175.44,153Z" style="fill:#9a4a4d"></path><path d="M125.32,139.5c.27.73-1.17,1-1.52.51-1.56-2-4.65-2.24-6.39-4.14-2-2.12-1.46-5.07-2.54-7.54-1.27-2.91-5-1.42-7.23-3S104,121,103,118.49c-.13-.33.71-.53.86-.19a18.89,18.89,0,0,0,2.28,4.13,5.45,5.45,0,0,0,4.29,2.11c2.7.19,5.56.57,6.85,3.31,1.07,2.28.55,5.66,2.58,7.43C121.71,136.88,124.38,136.94,125.32,139.5Z" style="fill:#9a4a4d"></path><path d="M109.75,138.26a5.43,5.43,0,0,0,1,2,3.44,3.44,0,0,0,1.71,1.08,13.53,13.53,0,0,1,2.18.34,3.69,3.69,0,0,1,2.61,2.24,10.08,10.08,0,0,0,1.19,3,.26.26,0,0,1,0,.21c0,.06-.05.13-.08.19a.38.38,0,0,1-.31.17c-1.29.11-1.7-1.58-2.06-2.54a3.52,3.52,0,0,0-.9-1.58c-.54-.42-1.42-.09-2-.15-1.41-.16-3.33-.84-3.52-2.48a3.34,3.34,0,0,0-.17-.88c-.13-.33-.23-.67-.34-1l-.87-2.7c-.08-.27.53-.43.64-.17Z" style="fill:#9a4a4d"></path><path d="M67.71,128.41c.33-2.13-.91-4.14-1.45-6.23a3.2,3.2,0,0,1,0-2.14,1.41,1.41,0,0,1,1.8-.78,2.16,2.16,0,0,1,.78.93l2.37,4.28a5.61,5.61,0,0,0,1.1,1.55c1.78,1.57,4.59.39,6.92.84a5.06,5.06,0,0,1,3.5,6.7c-.68,1.53-2.13,2.66-2.59,4.26a5.38,5.38,0,0,0,.28,3.33c.51,1.37,1.35,3,.43,4.16s-2.82.63-3.78-.46-1.34-2.56-2.13-3.77c-1.1-1.68-2.89-2.74-4.5-3.93C66.74,134.4,67.06,132.53,67.71,128.41Z" style="fill:#fff;opacity:0.2"></path><path d="M87.78,156.13c2.39.7,3.5,3.36,5.09,5.29,2.1,2.57,5.27,4,8,5.9s5.13,5,4.53,8.26c-.31,1.71-1.43,3.27-1.28,5,.19,2.27,2.5,3.94,2.66,6.22.14,1.83-1.15,3.42-1.91,5.09-.86,1.86-1.08,3.94-1.74,5.88s-2,3.87-3.93,4.38a18.5,18.5,0,0,0-.69-13c-1-2.29-2.51-4.41-3-6.87s.14-5.09-.08-7.62a11.59,11.59,0,0,0-2.78-6.54c-1.4-1.59-3.11-2.85-4-4.82C88.34,162.64,87.44,156,87.78,156.13Z" style="fill:#fff;opacity:0.2"></path><path d="M103,110.55c-3.24-.26-8.32-2.11-10.84.88-3.15,3.73,3.09,9.75,6,11.71,1.39.94,3,1.75,3.81,3.2.52.92.68,2,1.17,2.92,1.61,3,4.24,1.47,6.64,2.62,1.62.78,2.43,2.58,3.3,4.17s2.18,3.24,4,3.26c-1.59-.5-2.36-2.29-2.68-3.93s-.45-3.41-1.5-4.7a10.55,10.55,0,0,0-3.53-2.29,16.55,16.55,0,0,1-6.41-6.1c-.77-1.27-2.39-3.53-2.13-5.1.49-3.07,4.66-1,5.61.85.6,1.18,1,2.53,2,3.4,2.06,1.77,5.49.53,7.79,2,2.63,1.66,2.31,5.67,4.17,8.16,1.33,1.78,3.63,2.58,5.1,4.24,2.18,2.46,2.32,6.52,5.09,8.29-1.92-3.3-2.66-7.14-4.06-10.69-3.19-8.07-9.68-14.33-16.27-20a12.37,12.37,0,0,0-2.93-2A13,13,0,0,0,103,110.55Z" style="fill:#fff;opacity:0.2"></path><path d="M147.7,115.87a2.71,2.71,0,0,1-1.52-.45c-.47-.33-.79-.85-1.23-1.22-1.26-1.06-3.12-.77-4.73-.43a1.77,1.77,0,0,0-.8.33,1.7,1.7,0,0,0-.37,1.21,16,16,0,0,0,.29,4.84,5.39,5.39,0,0,0,2.92,3.68,10,10,0,0,1,1.76.71c1.47,1,1.12,3.28.35,4.89s-1.84,3.35-1.28,5a21.27,21.27,0,0,0,1,1.95c1.09,2.43-.48,5.17-.71,7.82-.2,2.29.62,4.53,1.43,6.68a13.17,13.17,0,0,1-4-6.89,9.18,9.18,0,0,0-1.2-3.79,25.52,25.52,0,0,0-2.08-1.94c-1.89-2-1.7-5.07-2.08-7.78a16.18,16.18,0,0,0-4-8.49c-1.89-2.08-4.35-4.52-4.82-7.44a2.64,2.64,0,0,1,.17-1.62c.53-1,1.88-1.18,3-1.16,1.63,0,3.92.84,5.46.48,1.74-.41,3.33-2.28,5.05-3a18.19,18.19,0,0,1,7.19-1C152.18,108.68,152.65,115.93,147.7,115.87Z" style="fill:#fff;opacity:0.2"></path><path d="M149.1,165.34c.91-.93,1-2.4,1.78-3.44,1.4-1.86,4.19-1.57,6.45-2.11.5,1.17-.52,2.47-1.65,3.06s-2.47.84-3.43,1.68a7.16,7.16,0,0,0-1.09,1.35c-1.64,2.47-3.26,5.17-3.24,8.13,0,1.68.57,3.31.75,5s-.11,3.57-1.42,4.63c-.44-3.34-2.71-5.09-5.29-6.87-1.86-1.28-4.18-2.51-3.86-5.12.27-2.21,1.06-1.34,2.27-2.26a31.63,31.63,0,0,1,2.38-2.23C144.66,166,147.43,167.05,149.1,165.34Z" style="fill:#fff;opacity:0.2"></path><path d="M145.64,54.68c3.58,2.39,5.85,6.29,7.51,10.25.91,2.15,1.84,4.56,3.93,5.62C160,72,164,70.12,166.7,72c1.91,1.27,2.63,4,4.77,4.83,2.42.91,5.14-1.24,7.62-.53s3.4,3.82,5.52,5.31,4.69,1.14,7.14,1.07c5.9-.19,11.75,1.08,17.52,2.35a22.84,22.84,0,0,1,6.11,2,13.69,13.69,0,0,0,3.31,1.66c1.87.43,3.78-.43,5.69-.49,5.35-.18,8.74,5.37,12.17,9.48,4.66,5.57,11.47,9.85,13.46,16.83s-1.66,14.4-6.44,19.87a9.57,9.57,0,0,0-2.35,3.59c-.41,1.52,0,3.12.16,4.69.45,6-3.88,11.22-7.94,15.68-1.67,1.84-3.61,3.81-6.09,3.94-2.31.12-4.39-1.41-6.69-1.71-2.6-.35-5.11.89-7.57,1.8s-5.43,1.43-7.53-.13c-.85-.63-1.45-1.52-2.24-2.22-3.47-3.12-8.9-1.53-13.53-2.16s-8.64-3.62-12.37-6.52c-2.65-2.05-5.54-4.6-5.49-7.94,0-1.1.33-2.34-.34-3.22s-1.88-.89-2.91-1.16c-2.53-.68-4.23-3.05-5.32-5.43s-1.78-5-3.35-7.09c-1.27-1.71-3-3-4.31-4.71a10.28,10.28,0,0,1-1.67-8.43,5,5,0,0,0,.27-2.49c-.52-1.77-2.92-1.89-4.64-2.56-3.56-1.39-4.65-5.76-6.5-9.11a17,17,0,0,0-13-8.54c-1.69-.17-3.58-.15-4.78-1.34-1.47-1.44-1.17-4-2.43-5.59s-3.4-1.93-4.43-3.54c-1.31-2.07.09-4.87-.6-7.22-.37-1.24-1.31-2.3-1.42-3.59-.3-3.68,5.57-4.65,6.89-8.1.55-1.45.19-3.13.75-4.57a5.14,5.14,0,0,1,4.34-2.89c1.7-.17,3.48.85,5.07.65,1.31-.16,2.57-1.3,4-1.55A11.51,11.51,0,0,1,145.64,54.68Z" style="fill:#c8856a"></path><path d="M123.38,61.19c.55-1.45.19-3.13.75-4.57a5.14,5.14,0,0,1,4.34-2.89c1.7-.17,3.48.85,5.07.65,1.31-.16,2.57-1.3,4-1.55a10.4,10.4,0,0,1,3.77.08c-2.21,2.06-4.28,4.45-7.15,5.36-1.75.55-4,.71-4.74,2.37s.61,3.52,1,5.32c.75,3.17-1.34,7.14,1,9.44,3.22,3.2,10.1-1.91,12.78,1.75-2.08,1.87-5.23,3.21-5.56,6s2.34,4.78,4.88,5.7,5.44,1.35,7.32,3.28c1.53,1.57,2.07,3.82,3,5.82s2.52,4,4.71,4.06c1.13,0,2.25-.5,3.35-.29,2.35.46,2.83,3.74,2,6s-2.53,4.26-2.56,6.65c0,1.92,1,3.66,2,5.29l3.57,5.76c.33.54.61,1.32,1.23,1.59,1,.44,1.48-.48,1.72-1.29l.59-2a2.59,2.59,0,0,1,.44-1,2.43,2.43,0,0,1,.78-.56,28.82,28.82,0,0,1,8.6-2.31L177.45,123a3.48,3.48,0,0,0-.95,1.59c-.23,1.22.81,2.28,1.24,3.45a10,10,0,0,1,.3,3.2,26.81,26.81,0,0,0,.85,5.32,3.7,3.7,0,0,0,.5,1.33,3.52,3.52,0,0,0,.9.82,63.24,63.24,0,0,0,8.42,5.43,13.92,13.92,0,0,0,4.52,1.69,11.45,11.45,0,0,0,5.25-.69c3.93-1.52,7.56-5.36,11.58-4.11,1.72.53,3,1.92,4.33,3.12,2.58,2.35,5.8,4.26,9.29,4.32s7.16-2.2,7.81-5.63c.25-1.32,0-2.7.23-4,.61-4.41,5-7.14,9.09-9,3.08-1.38,6.46-2.86,8.64-5.28a30.36,30.36,0,0,1-5.88,9.74,9.57,9.57,0,0,0-2.35,3.59c-.41,1.52,0,3.12.16,4.69.45,6-3.88,11.22-7.94,15.68-1.67,1.84-3.61,3.81-6.09,3.94-2.31.12-4.39-1.41-6.69-1.71-2.6-.35-5.1.89-7.57,1.8s-5.43,1.43-7.53-.13c-.85-.63-1.45-1.52-2.24-2.22-3.47-3.12-8.9-1.53-13.53-2.16s-8.64-3.62-12.37-6.52c-2.65-2.05-5.54-4.6-5.49-7.94,0-1.1.33-2.34-.34-3.22s-1.88-.89-2.91-1.16c-2.53-.68-4.23-3.05-5.32-5.43s-1.78-5-3.35-7.09c-1.27-1.71-3-3-4.31-4.71a10.28,10.28,0,0,1-1.67-8.43,5,5,0,0,0,.27-2.49c-.52-1.77-2.92-1.89-4.64-2.56-3.56-1.39-4.65-5.76-6.5-9.11a17,17,0,0,0-13-8.54c-1.69-.17-3.58-.15-4.78-1.34-1.47-1.44-1.17-4-2.43-5.59s-3.4-1.93-4.43-3.54c-1.31-2.07.09-4.87-.6-7.22-.37-1.24-1.31-2.3-1.42-3.59C116.19,65.61,122.06,64.64,123.38,61.19Z" style="fill:#af6152"></path><path d="M249.45,124.55a29.55,29.55,0,0,1-5.65,9.94c-1.24,1.44-2.46,2.94-2.32,4.77s.66,3.85.38,5.77c-.47,4-2.71,7.47-5.08,10.48-1.9,2.25-3.63,4.63-6.08,6.37a6.8,6.8,0,0,1-6.21.76c-2.62-1-5-1.79-7.72-.67-1.72.55-3.46,1.45-5.49,1.91a7.73,7.73,0,0,1-6.35-.89c-1.64-1.31-2.28-2.72-4.18-3.38-3.47-1.19-7.38-.2-11.14-.73-4-.53-7.58-2.72-10.73-5.1s-6.85-4.72-7.89-9a12.25,12.25,0,0,1,0-3.08c0-.74,0-1-.69-1.29-7.41-1.14-7.66-7.75-10.73-13a37.86,37.86,0,0,0-3.7-4.17,11.52,11.52,0,0,1-2.21-11.4c.37-1.92-1.72-2.2-3.21-2.69a7.39,7.39,0,0,1-2.74-1.41c-2.32-1.94-3.21-5-4.44-7.55a17,17,0,0,0-13.08-9.62A17.08,17.08,0,0,1,144,99.8c1.34,2.47,2.26,5.22,4.42,7s7.24,1.1,6.62,5.27a9.94,9.94,0,0,0,2.09,10,37.07,37.07,0,0,1,4,4.28c3.19,4.9,3,11.19,9.9,12.11a3.1,3.1,0,0,1,1.61,1.35,5.92,5.92,0,0,1,.35,3.37c-.06,2.11,1.22,3.79,2.85,5.32,4.08,3.4,8.68,7.27,14.07,8.16a40.41,40.41,0,0,0,5.56.16c2.89-.06,6.53.26,8.79,2.56a23.7,23.7,0,0,0,1.91,1.94,5.68,5.68,0,0,0,4.65.58c2.64-.57,5.43-2.28,8.36-2.43,2.85-.37,5.84,2,8.31,1.83,3.42-.48,5.85-4.27,8.16-6.7,3-3.54,5.59-7.72,5.18-12.43-.21-1.87-.55-4.14.65-5.81,3-3.72,6.31-7.19,8-11.8Z" style="fill:#9a4a4d"></path><path d="M152.57,95.43a3,3,0,0,1,1.75,2.27,7.29,7.29,0,0,0,.72,2c.68,1,1.63.61,2.64.54,1.46-.1,3.24-.31,4.58.41s1.76,2.14,2.36,3.45c1.75,3.88,6.3.21,9.2-.15a11.23,11.23,0,0,1,5.17.59,10.92,10.92,0,0,1,3.88,2.62c.15.14.15.7-.13.52a12.18,12.18,0,0,0-11.15-.72c-2.69,1.25-6.56,3.3-8.81.12-.77-1.08-.88-2.92-2.06-3.68s-2.94.07-4.3-.38a3.87,3.87,0,0,1-2.14-2.34c-.58-1.44-.31-3.6-1.82-4.45C152.2,96.07,152.18,95.31,152.57,95.43Z" style="fill:#9a4a4d"></path><path d="M135.72,64.32a9.21,9.21,0,0,1-1.66-3.47,15.27,15.27,0,0,0-.92-3.65,8.89,8.89,0,0,0-1.26-1.68,19.3,19.3,0,0,0-1.62-1.64,10.47,10.47,0,0,0,3.28.5,3.85,3.85,0,0,0,1-.29,1.39,1.39,0,0,1,.15.19,4.72,4.72,0,0,1,.92,2.1,26.9,26.9,0,0,1-.18,3.23,10.7,10.7,0,0,0,1.12,5.09C136.26,64.86,135.93,64.58,135.72,64.32Z" style="fill:#9a4a4d"></path><path d="M124.44,87.67c.47,0,1-.08,1.42-.1,2.3-.13,5.07.06,7.06-1.32,1.07-.75,1.62-2.12,2.35-3.14a13.25,13.25,0,0,1,2.79-3,10.91,10.91,0,0,1,3.73-1.67c1.47-.43,3.64-1.2,3.88-3,.05-.45.51-.31.5.09a3.57,3.57,0,0,1-.83,2.64,8.92,8.92,0,0,1-3.48,2.27,9.82,9.82,0,0,0-2.38,1.19,5.93,5.93,0,0,0-1.27,2.45,11.56,11.56,0,0,1-2.19,3.6,10.44,10.44,0,0,1-5.5,2.89l-.37-.06c-1.69-.17-3.58-.15-4.78-1.34A3.94,3.94,0,0,1,124.44,87.67Z" style="fill:#9a4a4d"></path><path d="M169.08,138.71a5.2,5.2,0,0,1-.43-3.84c.49-1.32,1.7-2,2.41-3.14.92-1.49.66-3.47.94-5.13a7.46,7.46,0,0,1,4.33-5.35,67.85,67.85,0,0,1,8.56-3.24c.24-.09.34.43.14.51-2.59,1.09-5.29,2-7.77,3.38-1.29.69-2.77,1.62-2.95,3.19s.44,3.11.26,4.72a8.05,8.05,0,0,1-1.28,3.54c-.39.58-.92,1-1.34,1.52a.87.87,0,0,0-.19,1.09,9.81,9.81,0,0,1,.88,3.52,5.35,5.35,0,0,1-.63,2.1,2.36,2.36,0,0,0-.42-1.49,3.81,3.81,0,0,0-2.38-1C169.17,138.94,169.13,138.83,169.08,138.71Z" style="fill:#9a4a4d"></path><path d="M172.76,77.29c-2.22,1.13-2.79,3.86-5,5-2.76,1.43-5.06-.42-7.7-1.12-1.57-.41-3.87-.77-5.29.26a4.73,4.73,0,0,0-1.42,1.8,12.21,12.21,0,0,1-.61,1.76.1.1,0,0,1-.14,0c-1.25-1.75,1.37-4.37,2.59-5.34,2.5-2,5.38-1.84,8.25-.78,1.47.54,3.2,1.46,4.35,0a21.19,21.19,0,0,1,2.35-2.94,3.87,3.87,0,0,0,1.36.89,4.2,4.2,0,0,0,2.08.17Z" style="fill:#9a4a4d"></path><path d="M244,109.1c-1,1-1.09,2.49-1.94,3.6a4.66,4.66,0,0,1-3.4,1.76,9.64,9.64,0,0,1-4.06-.5c-1.45-.57-2.46-1.88-3.94-2.37-3.07-1-6.19,0-7.15,3.32,0,.11-.12,0-.11-.09a7.82,7.82,0,0,1,4.89-5.73,6.29,6.29,0,0,1,4.42.21c1.8.76,2.94,2,5,2.12.56,0,1.82.27,2.3-.11s.63-1.6.92-2.15a8.34,8.34,0,0,1,3.22-3.26l.34-.16c.65.68,1.28,1.39,1.87,2.11A5.46,5.46,0,0,0,244,109.1Z" style="fill:#9a4a4d"></path><path d="M231,132.66a20,20,0,0,0,8.19-2.36c3.36-1.83,6.57-4.21,10.19-5.46a25.72,25.72,0,0,1-1.61,3.51c-3.32,1.46-6.35,3.77-9.63,5.26a18.12,18.12,0,0,1-7.24,1.63c-2.58,0-5.59-.4-8,.83-.3.15-.39-.51-.21-.67C225.12,133.35,227.92,132.92,231,132.66Z" style="fill:#9a4a4d"></path><path d="M202,92.2a20.24,20.24,0,0,0,7.56.17c3.08-.66,5-2.62,7.33-4.49l0,0a6.64,6.64,0,0,0,1.78.76,5.88,5.88,0,0,0,1.87.07,28.9,28.9,0,0,0-5.2,3c-3.8,2.57-9.32,3.95-13.45,1.39C201.7,92.91,201.58,92.14,202,92.2Z" style="fill:#9a4a4d"></path><path d="M184.22,98.75a1.32,1.32,0,0,1,.73-1,2.07,2.07,0,0,1,1.75.14,2.59,2.59,0,0,1,.7.53,5.15,5.15,0,0,1,.32.45c.24,0,.52-.16.73-.21a11.57,11.57,0,0,1,1.13-.27,2.91,2.91,0,0,1,1.88.24,3.3,3.3,0,0,1,1.82,3.19c0,.3-.36.7-.53.23a2.75,2.75,0,0,0-1.51-1.54,3.21,3.21,0,0,0-2.41.2c-.83.32-2.08.94-2.61-.13a1.27,1.27,0,0,0-.51-.59,3.67,3.67,0,0,0-1.09-.24C184.24,99.65,184.17,99,184.22,98.75Z" style="fill:#9a4a4d"></path><path d="M195,106.82a2.5,2.5,0,0,1,1.5-.46,2,2,0,0,1,1.33.93,23.42,23.42,0,0,1,1.48,2.52,3.21,3.21,0,0,0,2.05,1.64,28.49,28.49,0,0,0,2.92.24,4.31,4.31,0,0,1,4,3.28c.5,2,0,4.4,1.61,5.9.17.16.15.79-.16.58-1.43-.94-1.81-2.79-2.6-4.22a6.12,6.12,0,0,0-2-2.32,4.79,4.79,0,0,0-2.48-.46c-1.94,0-3.85-.24-5-2a21.42,21.42,0,0,1-1.23-2.44,5.26,5.26,0,0,0-.73-1.08,1.71,1.71,0,0,1-.47-.74c-.09-.35,0-.7-.19-1C195,107.11,194.91,106.89,195,106.82Z" style="fill:#9a4a4d"></path><path d="M191,145.36a6.19,6.19,0,0,1,4.86-1c1,.13,2.3.64,3.24.28s1.58-1.36,2.22-2a11.76,11.76,0,0,1,4.51-2.79,4.92,4.92,0,0,1,2.47-.11,12.43,12.43,0,0,1,2.83.55c.06,0,.12.22,0,.23a10.55,10.55,0,0,0-3,.62,29.2,29.2,0,0,0-2.91,1.45,8.54,8.54,0,0,0-2.07,1.61c-.56.63-1,1.35-1.64,1.93a4.83,4.83,0,0,1-4.83,1.49,6.85,6.85,0,0,1-1.16-.55,7.46,7.46,0,0,0-1.91-.55,12.6,12.6,0,0,1-2.57-.66A.3.3,0,0,1,191,145.36Z" style="fill:#9a4a4d"></path><path d="M237,116.62a18.71,18.71,0,0,0,3.27-.5,4.29,4.29,0,0,0,2.58-1.2c.59-.73,1-2,1.93-1.79a1.38,1.38,0,0,1,.73.51,6.31,6.31,0,0,1,.58,6.45,15.52,15.52,0,0,1-4.29,5.22c-2.08,1.81-4.42,3.54-7.15,3.92a6.75,6.75,0,0,1-5.26-1.49c-1.11-1-1.29-2.22-2-3.45a4.9,4.9,0,0,0-4.26-2.66c-1.19-.14-3.72-.49-3.33-2.3.43-2,3.5-1.14,4.54-2.51a12.26,12.26,0,0,0,.69-1.29c1.19-2.14,5.17-3.11,7.09-1.47,1.13,1,1.07,2,2.73,2.38A7.48,7.48,0,0,0,237,116.62Z" style="fill:#fff;opacity:0.2"></path><path d="M226.57,92.8a57.15,57.15,0,0,1,7.27,8A5.44,5.44,0,0,1,235,103a2,2,0,0,1-.82,2.14,2.64,2.64,0,0,1-1.25.25,19.12,19.12,0,0,0-4.28.05,7.69,7.69,0,0,0-4,2.78c-1.06,1.26-1.92,2.67-3,3.88a4.65,4.65,0,0,1-3.41,1.77,5.1,5.1,0,0,1-2.8-1.36c-1.51-1.24-2.92-2.53-4.53-3.65a6.42,6.42,0,0,0-4.4-1.23,9.82,9.82,0,0,1-3-.49,1.83,1.83,0,0,1-.88-.49,2,2,0,0,1-.35-.7c-1.22-3.8.76-5.73,4.63-4.63a32.77,32.77,0,0,0,5.9,1.08,3.21,3.21,0,0,0,1.38-.1,2.82,2.82,0,0,0,1.45-1.69c1-2.51.16-6.39,3.05-7.61C220.78,92.08,224.59,91,226.57,92.8Z" style="fill:#fff;opacity:0.2"></path><path d="M174.61,80.63a4.23,4.23,0,0,1,4.22.18c1.49,1.09,1.82,3.24,3.19,4.48s3.68,1.26,5.66,1.24,4.27.28,5.33,2a19.18,19.18,0,0,0-9.09,2c-2.15,1.07-4.42,2.6-6.74,2s-4-3-6.22-2.39c-1,.3-1.72,1.21-2.65,1.73-2.36,1.33-5.34-.25-7.14-2.27a7.81,7.81,0,0,0-1.81-1.73c-1.26-.74-2.84-.52-4.29-.27a3.33,3.33,0,0,1,2.67-3.2,7.05,7.05,0,0,1,4.4.66,10.61,10.61,0,0,0,4,1.28C169.86,86.25,171.58,82.05,174.61,80.63Z" style="fill:#fff;opacity:0.2"></path><path d="M296.31,172.41,282.43,320.52h0v.32c-1.28,12.84-11,25.47-29.13,35.28-39,21.1-102.26,21.1-141.27,0-18.12-9.81-27.84-22.55-29.11-35.39L69,172.38c6,8.28,14.85,16,26.51,22.77,48.13,27.79,126.17,27.79,174.29,0C281.47,188.42,290.3,180.68,296.31,172.41Z" style="fill:#9339EA"></path><path d="M120.4,206.25l8.44,157.2A112.64,112.64,0,0,1,112,356.13c-.89-.48-1.76-1-2.6-1.47l-11-157.89A139.63,139.63,0,0,0,120.4,206.25Z" style="fill:#f0f0f0"></path><path d="M170.85,215.66l1.52,156a172.51,172.51,0,0,1-21-2.42l-4.88-156.38A203.74,203.74,0,0,0,170.85,215.66Z" style="fill:#f0f0f0"></path><path d="M194.49,215.66a204,204,0,0,0,24.36-2.8L214,369.24a172.67,172.67,0,0,1-21,2.42Z" style="fill:#f0f0f0"></path><path d="M266.89,196.77l-11,157.89c-.85.5-1.71,1-2.6,1.47a112.94,112.94,0,0,1-16.8,7.31l8.44-157.19A138.59,138.59,0,0,0,266.89,196.77Z" style="fill:#f0f0f0"></path><path d="M59.42,144.83c0,18.21,12,36.42,36.1,50.32,48.13,27.79,126.16,27.79,174.29,0,24.07-13.9,36.1-32.11,36.1-50.32l-7.54-2.47c0,16-11.29,32-33.89,44.25-45.18,24.44-118.44,24.44-163.63,0C78.26,174.39,67,158.37,67,142.36Z" style="fill:#f5f5f5"></path><path d="M95.52,195.15c48.13,27.79,126.16,27.79,174.29,0,15.31-8.84,25.74-19.42,31.31-30.63-10.33,15.57-40,46.16-114.06,46.16-99.3,0-127.64-49-127.64-65.85C59.42,163,71.46,181.25,95.52,195.15Z" style="fill:#e0e0e0"></path><path d="M269.81,195.15c-48.12,27.79-126.16,27.79-174.29,0C83.86,188.41,75,180.66,69,172.38l1.4,15h0L82.92,320.74c1.27,12.84,11,25.58,29.11,35.39,39,21.1,102.26,21.1,141.27,0a82.39,82.39,0,0,0,11.9-7.75c-1.48,1-44.33,30.47-102.56,13.15-59.26-17.63-65.82-45.24-68.12-73.81-1.91-23.81-5.63-70.24-6.82-85,1,.65,2.12,1.3,3.21,1.93,50.68,29.26,132.84,29.26,183.51,0a99.59,99.59,0,0,0,20.29-15.16l1.6-17.05C290.3,180.68,281.47,188.42,269.81,195.15Z" style="opacity:0.2"></path><path d="M137.54,249a2.77,2.77,0,0,1,.53.06c4.7.88,7.05,1.26,11.78,1.91.73.1,1.11.66,1.13,1.69,0,.38,0,.56,0,.94q0,1.41-.87,1.41H150c-3-.41-4.47-.64-7.44-1.14.08,2.5.12,3.76.21,6.26,2.75.47,4.12.68,6.88,1.06.72.1,1.1.67,1.13,1.7,0,.37,0,.56,0,.93,0,.94-.26,1.41-.86,1.41h-.18c-2.75-.38-4.12-.59-6.86-1.06.14,4,.2,5.94.33,9.9a.65.65,0,0,1-.48.71,1.92,1.92,0,0,1-.58.07,6.91,6.91,0,0,1-1.08-.11l-1.32-.24c-1.44-.27-2.18-.76-2.21-1.46-.35-9.16-.52-13.75-.88-22.91a1.07,1.07,0,0,1,.31-1,1,1,0,0,1,.59-.15m0-6.18h0a7,7,0,0,0-7.08,7.53l.26,6.73.63,16.18c.11,2.9,2.07,6.34,7.26,7.3l1.36.25a12.14,12.14,0,0,0,2.16.2,7.84,7.84,0,0,0,2.5-.38,6.83,6.83,0,0,0,4.74-6.79l-.08-2.46.61,0a6.88,6.88,0,0,0,5-2.09,7.52,7.52,0,0,0,2.05-5.67v-.93a8.46,8.46,0,0,0-1.22-4.28,7.72,7.72,0,0,0,1.49-5v-.93a7.55,7.55,0,0,0-6.48-7.66c-4.63-.63-6.89-1-11.48-1.86a8.89,8.89,0,0,0-1.67-.16Z" style="fill:#f0f0f0"></path><path d="M156.16,251.77l.35,0c2.82.31,4.24.44,7.07.66,5.89.47,8.86,2.81,8.9,7.36a5.78,5.78,0,0,1-4,5.86v.14c1.16.6,2.17,1.95,3,4.07,1.06,2.82,1.59,4.23,2.65,7l.09.24a.71.71,0,0,1,0,.24c0,.49-.61.74-1.84.74h-.48l-1.25-.06c-1.35-.07-2.1-.39-2.25-.95-1-2.81-1.47-4.22-2.47-7.05a4.27,4.27,0,0,0-1.21-1.77,4.09,4.09,0,0,0-2.07-.63l-1.61-.14c.07,3.55.1,5.32.17,8.87q0,.87-1.53.87a6.41,6.41,0,0,1-.73,0l-1.16-.12c-1.49-.16-2.24-.59-2.26-1.29-.21-9.14-.31-13.71-.53-22.86a1.12,1.12,0,0,1,.35-1,1.35,1.35,0,0,1,.81-.22m8.1,11.64a2.31,2.31,0,0,0,1.79-.84,3.58,3.58,0,0,0,.79-2.53,3.63,3.63,0,0,0-.84-2.58,3.27,3.27,0,0,0-2.23-1c-1.19-.09-1.78-.15-3-.25,0,2.76.07,4.14.12,6.89,1.25.12,1.88.17,3.14.27h.2m-8.1-17.82a7.41,7.41,0,0,0-4.58,1.5,7.27,7.27,0,0,0-2.76,6l.52,22.32V276c.07,3,2.15,6.71,7.79,7.3l1.19.12a12.73,12.73,0,0,0,1.35.07,8.15,8.15,0,0,0,4.77-1.38,9,9,0,0,0,5.89,2.17l1.28.07h.76a8.35,8.35,0,0,0,6.08-2.21,6.58,6.58,0,0,0,1.94-4.76,6.7,6.7,0,0,0-.38-2.2c-.05-.16-.11-.31-.16-.45l-2.64-7,0-.07c-.13-.33-.27-.66-.41-1a12.38,12.38,0,0,0,1.88-6.89c0-3.7-1.51-12.43-14.6-13.46-2.77-.22-4.12-.34-6.89-.64a8.68,8.68,0,0,0-1-.06Z" style="fill:#f0f0f0"></path><path d="M179.77,253.07h1.55c1.47,0,2.2.36,2.2,1.08,0,9.27,0,13.91,0,23.18,0,.72-.71,1.08-2.12,1.08h-1.46c-1.47,0-2.2-.39-2.21-1.11,0-9.28-.05-13.91-.09-23.19,0-.7.71-1,2.15-1m0-6.18h0a8.66,8.66,0,0,0-6.3,2.29,6.91,6.91,0,0,0-2,5l.06,16.34,0,6.84c0,3.46,2.63,7.21,8.32,7.27h1.53c5.7,0,8.3-3.76,8.3-7.25V254.16c0-3.48-2.61-7.24-8.35-7.26h-1.58Z" style="fill:#f0f0f0"></path><path d="M203.66,252.25a.84.84,0,0,1,.72.3,1.94,1.94,0,0,1,.24,1.14c0,.38,0,.56,0,.94a2.24,2.24,0,0,1-.28,1.19,1.13,1.13,0,0,1-.89.46c-3.38.3-5.07.42-8.45.59,0,2.5,0,3.75-.07,6.25,3-.16,4.5-.26,7.5-.51h.15a.8.8,0,0,1,.71.31,1.92,1.92,0,0,1,.24,1.14c0,.38,0,.56,0,.94a2.24,2.24,0,0,1-.29,1.19,1.11,1.11,0,0,1-.87.45c-3,.25-4.48.35-7.47.51,0,2.73-.05,4.1-.08,6.83,3.36-.18,5-.3,8.38-.6h.14a.8.8,0,0,1,.68.3,2,2,0,0,1,.23,1.16c0,.37,0,.56,0,.93a2.2,2.2,0,0,1-.28,1.21,1,1,0,0,1-.82.43c-5,.45-7.56.61-12.62.78h-.12a1.46,1.46,0,0,1-1-.28,1.26,1.26,0,0,1-.34-1c.06-9,.08-13.48.13-22.47a1.37,1.37,0,0,1,.36-1,1.83,1.83,0,0,1,1.15-.35c5.14-.17,7.71-.33,12.85-.79h.15m0-6.19-.7,0c-5,.45-7.48.6-12.52.78a7.81,7.81,0,0,0-5,1.9,7.45,7.45,0,0,0-2.43,5.62l-.07,11.83-.06,10.64a7.32,7.32,0,0,0,2.5,5.74,7.52,7.52,0,0,0,5,1.76h.34c5.15-.18,7.81-.34,13-.8a7.27,7.27,0,0,0,5.37-3.08,8.3,8.3,0,0,0,1.37-4.6v-.94a7.8,7.8,0,0,0-1.48-5,5.52,5.52,0,0,0-.43-.53,8.34,8.34,0,0,0,1.19-4.31v-.94a8.15,8.15,0,0,0-.9-4.06,7.51,7.51,0,0,0,.66-.83,8.3,8.3,0,0,0,1.33-4.53v-.93a7.83,7.83,0,0,0-1.42-4.89,7,7,0,0,0-5.72-2.86Z" style="fill:#f0f0f0"></path><path d="M221.37,250.19a7.51,7.51,0,0,1,5.5,1.89c1.75,1.7,2.52,4.69,2.35,9s-1.19,7.67-3.06,10.06a12.37,12.37,0,0,1-8.22,4.47c-3.11.48-4.67.69-7.8,1.06l-.36,0a1.22,1.22,0,0,1-.75-.2,1.19,1.19,0,0,1-.32-1c.21-9,.31-13.5.51-22.5a1.45,1.45,0,0,1,.38-1.06,2,2,0,0,1,1.15-.44c3.19-.38,4.78-.6,8-1.09a18.43,18.43,0,0,1,2.66-.22m-6.79,21.89,3.31-.48a5.43,5.43,0,0,0,4-2.63,14.32,14.32,0,0,0,1.51-6.79q.16-4.57-1.07-6.35a3.36,3.36,0,0,0-2.94-1.44,6.41,6.41,0,0,0-1,.08c-1.34.21-2,.3-3.35.49-.19,6.85-.29,10.27-.48,17.12M221.37,244h0a24.31,24.31,0,0,0-3.6.29c-3.11.48-4.63.69-7.76,1.06a8,8,0,0,0-4.7,2.13,7.6,7.6,0,0,0-2.27,5.37l-.25,11.22-.26,11.28a7.17,7.17,0,0,0,2.67,6,7.29,7.29,0,0,0,4.58,1.53,8.44,8.44,0,0,0,1.1-.07c3.18-.38,4.83-.6,8-1.09A18.6,18.6,0,0,0,231,274.94c2.68-3.43,4.15-8,4.37-13.62.25-6.19-1.13-10.65-4.2-13.66a13.51,13.51,0,0,0-9.83-3.65Z" style="fill:#f0f0f0"></path><path d="M120.89,276.61a16.42,16.42,0,0,1,4,.56,17.41,17.41,0,0,1,3.89,1.42,2.24,2.24,0,0,1,.9.75,1.89,1.89,0,0,1,.26,1,4.2,4.2,0,0,1-.39,1.93c-.19.36-.42.54-.7.54a1,1,0,0,1-.51-.16,11.41,11.41,0,0,0-3-1.25,6.64,6.64,0,0,0-1.56-.22,3,3,0,0,0-2.6,1.25c-.85,1.18-1.19,3.23-1,6.18a15.54,15.54,0,0,0,1.74,7,6.93,6.93,0,0,0,4.44,3.29,7.41,7.41,0,0,0,1.58.24h.46l1.07,0h.14a.79.79,0,0,1,.23,0,1.71,1.71,0,0,1,1.11,1.06,5.66,5.66,0,0,1,.46,2,1.29,1.29,0,0,1-.19.8,1.23,1.23,0,0,1-.86.35,6.27,6.27,0,0,1-.8,0,9.8,9.8,0,0,1-1,0,13.88,13.88,0,0,1-2.41-.42,14.12,14.12,0,0,1-8.4-5.39c-1.85-2.59-2.91-6.14-3.17-10.61s.46-7.3,2.16-8.88a6,6,0,0,1,4.3-1.44m0-6.19h0a12.13,12.13,0,0,0-8.51,3.1c-3.15,2.93-4.49,7.43-4.12,13.77.33,5.64,1.78,10.29,4.3,13.83a20.16,20.16,0,0,0,11.91,7.8,20.39,20.39,0,0,0,3.4.59c.55.05,1.08.07,1.57.07a11.66,11.66,0,0,0,1.49-.08,7.13,7.13,0,0,0,5.17-2.85,7.42,7.42,0,0,0,1.36-4.71,11.71,11.71,0,0,0-1-4.35,7.76,7.76,0,0,0-5.32-4.51,6.7,6.7,0,0,0-1.64-.19l-.47,0-.74,0h-.21l-.32-.07a.81.81,0,0,1-.63-.43,9.23,9.23,0,0,1-.87-3.94,7,7,0,0,0,2.55.49A6.91,6.91,0,0,0,135,285.1a10.08,10.08,0,0,0,1.09-4.83,8,8,0,0,0-1.23-4.27,8.38,8.38,0,0,0-3.24-2.89,23.66,23.66,0,0,0-5.23-1.93,22.21,22.21,0,0,0-5.48-.76Z" style="fill:#f0f0f0"></path><path d="M134.91,279.77a5.48,5.48,0,0,1,1.1.13l1.39.28c1.41.27,2.13.75,2.15,1.45l.35,9.32c3.41.64,5.12.93,8.54,1.43-.11-3.72-.17-5.59-.28-9.31,0-.54.41-.81,1.27-.81a7.56,7.56,0,0,1,.87.07l1.37.19c1.45.19,2.18.62,2.2,1.32.23,9.29.34,13.93.57,23.22,0,.55-.42.83-1.31.83a5.91,5.91,0,0,1-.79-.06l-1.34-.18c-1.41-.2-2.13-.65-2.15-1.35-.12-3.94-.17-5.91-.29-9.85-3.41-.51-5.12-.79-8.51-1.43.15,4,.22,5.93.36,9.87,0,.51-.33.76-1,.76a4.8,4.8,0,0,1-1-.11l-1.36-.27c-1.41-.29-2.12-.79-2.15-1.48-.39-9.32-.59-14-1-23.29,0-.49.31-.73,1-.73m0-6.19a7.14,7.14,0,0,0-5.32,2.16,6.74,6.74,0,0,0-1.87,5l.47,11.27.5,12c.06,1.38.74,6,7.1,7.28l1.4.28a11.46,11.46,0,0,0,2.17.23,7.29,7.29,0,0,0,4.58-1.48,8.64,8.64,0,0,0,6.22,3.42l1.37.18a11.33,11.33,0,0,0,1.6.11,7.46,7.46,0,0,0,5.55-2.18,6.81,6.81,0,0,0,1.94-5l-.29-11.63-.28-11.59c0-1.06-.52-6.37-7.57-7.3l-1.33-.18a11.85,11.85,0,0,0-1.72-.13,7.64,7.64,0,0,0-4.89,1.6,8.73,8.73,0,0,0-5.95-3.57l-1.36-.27a11.68,11.68,0,0,0-2.32-.26Z" style="fill:#f0f0f0"></path><path d="M160.9,283.55l.63,0,1.41.12c1.43.12,2.15.53,2.16,1.24.13,9.28.2,13.92.34,23.2,0,.62-.5.94-1.54.94l-.54,0-1.38-.12c-1.42-.13-2.14-.56-2.15-1.28-.18-9.29-.28-13.93-.46-23.21,0-.61.5-.9,1.53-.9m0-6.19h0a7.75,7.75,0,0,0-5.75,2.22,6.87,6.87,0,0,0-2,5l.46,23.21c.06,3.06,2.14,6.81,7.78,7.32l1.42.12c.36,0,.71,0,1.05,0a7.73,7.73,0,0,0,5.73-2.21,6.86,6.86,0,0,0,2-5l-.16-11-.18-12.24c-.05-3.07-2.12-6.84-7.83-7.31l-1.37-.12c-.41,0-.81-.06-1.18-.06Z" style="fill:#f0f0f0"></path><path d="M180.94,284.36h.13a15,15,0,0,1,3.94.45,1.57,1.57,0,0,1,.9.53,1.45,1.45,0,0,1,.21.93,4.81,4.81,0,0,1-.49,2q-.39.75-.93.75a.86.86,0,0,1-.34-.07,9.68,9.68,0,0,0-3.07-.49h0a4.84,4.84,0,0,0-4.33,2.07c-.95,1.4-1.41,3.56-1.4,6.48s.51,5.14,1.46,6.59a5,5,0,0,0,4.45,2.19h0a7.42,7.42,0,0,0,1.58-.14c.46-.1,1-.23,1.58-.4a1.51,1.51,0,0,1,.38-.08h0a1.17,1.17,0,0,1,1.08.79,4.47,4.47,0,0,1,.37,1.95,1.52,1.52,0,0,1-.23.85,1.78,1.78,0,0,1-.91.57,11.09,11.09,0,0,1-1.88.45,15.22,15.22,0,0,1-2.38.18H181c-3.86,0-6.68-1.17-8.48-3.32s-2.73-5.45-2.77-9.88.85-7.45,2.71-9.48,4.69-2.95,8.51-2.95m0-6.19h0c-5.64,0-10,1.67-13.06,4.95s-4.41,7.83-4.35,13.74,1.49,10.52,4.22,13.78c2.09,2.5,6.08,5.49,13.18,5.53h.14a22.62,22.62,0,0,0,3.34-.25,18.22,18.22,0,0,0,3-.72,7.48,7.48,0,0,0,5.28-7.24,10.79,10.79,0,0,0-1-4.6A7.37,7.37,0,0,0,185,299h-.08a7.52,7.52,0,0,0-2,.32c-.36.11-.68.19-1,.25a11.24,11.24,0,0,1-.24-2.59,11.85,11.85,0,0,1,.16-2.28,2.68,2.68,0,0,1,.49.11,7,7,0,0,0,2.34.4,7.2,7.2,0,0,0,6.42-4.09,11,11,0,0,0,1.18-4.62,7.38,7.38,0,0,0-5.64-7.67,21.56,21.56,0,0,0-5.56-.68Z" style="fill:#f0f0f0"></path><path d="M208,283.17c.64,0,1,.12,1,.35a1.71,1.71,0,0,1-.32.79c-3.08,4.79-4.61,7.16-7.65,11.86l7.72,10.89a1.14,1.14,0,0,1,.23.65c0,.36-.66.62-2,.77l-2.13.22c-.31,0-.58,0-.82,0a4.85,4.85,0,0,1-.58,0,1.13,1.13,0,0,1-.77-.42L196,297.38l-.13.05c-.05,4.38-.07,6.57-.13,10.95,0,.69-.75,1.09-2.23,1.16l-1.26.06h-.33q-1.8,0-1.8-1c.06-9.28.1-13.92.16-23.19,0-.7.74-1.06,2.19-1.13l1.29-.06h.43c1.22,0,1.84.31,1.83.93,0,4.34-.08,6.51-.13,10.85l.13,0L203,284.23a1.3,1.3,0,0,1,.74-.55,6.3,6.3,0,0,1,1.37-.26l1.79-.18c.43,0,.78-.07,1.08-.07m0-6.18h0a16,16,0,0,0-1.73.1l-1.75.18a11.86,11.86,0,0,0-2.73.55,7.5,7.5,0,0,0-2.73,1.59,8.69,8.69,0,0,0-4.93-1.34l-.73,0-1.25.06c-6.37.27-8.1,4.69-8.11,7.26L184,294l-.1,14.59a6.88,6.88,0,0,0,2,4.95,8.08,8.08,0,0,0,6,2.24l.6,0,1.29-.06a8.94,8.94,0,0,0,5.71-2.06,7.43,7.43,0,0,0,3.08,1.17,9.93,9.93,0,0,0,1.48.1c.45,0,.92,0,1.43-.07l2.19-.23c6.81-.74,7.45-5.36,7.49-6.76a7.34,7.34,0,0,0-1.26-4.2.66.66,0,0,0-.12-.17l-2.82-4-2.47-3.5,5.38-8.36.06-.09a7.55,7.55,0,0,0,1.24-3.89,6.36,6.36,0,0,0-1.82-4.63A7.13,7.13,0,0,0,208,277Z" style="fill:#f0f0f0"></path><path d="M226.19,280.48a.61.61,0,0,1,.55.25,1.82,1.82,0,0,1,.21,1.12c0,.37,0,.56,0,.93a2.45,2.45,0,0,1-.3,1.22,1.21,1.21,0,0,1-.86.54c-3.26.62-4.89.9-8.16,1.4-.08,2.51-.11,3.76-.19,6.26,2.9-.44,4.35-.69,7.23-1.22l.27,0a.63.63,0,0,1,.56.25,1.84,1.84,0,0,1,.21,1.12c0,.38,0,.56,0,.94a2.6,2.6,0,0,1-.29,1.22,1.21,1.21,0,0,1-.86.53c-2.87.54-4.31.78-7.2,1.22-.09,2.74-.13,4.11-.21,6.84,3.24-.5,4.85-.77,8.08-1.39a1.1,1.1,0,0,1,.25,0,.59.59,0,0,1,.52.23,1.85,1.85,0,0,1,.21,1.14c0,.38,0,.56,0,.94a2.6,2.6,0,0,1-.29,1.24,1.2,1.2,0,0,1-.8.51c-4.86.92-7.29,1.31-12.18,2l-.38,0a1,1,0,0,1-.69-.19,1.16,1.16,0,0,1-.31-1c.23-9,.35-13.5.58-22.51a1.49,1.49,0,0,1,.37-1.07,1.91,1.91,0,0,1,1.11-.45c5-.67,7.46-1.07,12.4-2l.28,0m0-6.18a7,7,0,0,0-1.43.14c-4.83.91-7.2,1.3-12.07,1.95A8,8,0,0,0,208,278.6a7.59,7.59,0,0,0-2.17,5.28l-.12,4.43-.46,18.08a7,7,0,0,0,7.18,7.51,8.38,8.38,0,0,0,1.21-.08c5-.67,7.56-1.09,12.5-2a7.29,7.29,0,0,0,4.85-3.25,8.54,8.54,0,0,0,1.27-4.33l0-.5v-.44a7.7,7.7,0,0,0-1.44-5.1c-.1-.13-.2-.26-.31-.38l0,0a8.47,8.47,0,0,0,1.23-4.26l0-.59v-.35a8.17,8.17,0,0,0-.85-4.14,8.17,8.17,0,0,0,.87-1.14,8.47,8.47,0,0,0,1.22-4.25l0-.92a7.79,7.79,0,0,0-1.38-5,6.81,6.81,0,0,0-5.56-2.79Z" style="fill:#f0f0f0"></path><path d="M250.16,274.62c.54,0,.79.22.76.65-.55,9.36-.82,14-1.38,23.39q-.06,1.06-2.13,1.68l-.81.24a3.84,3.84,0,0,1-1,.18h-.16a.8.8,0,0,1-.7-.47c-3.07-4.57-4.64-6.88-7.82-11.56a13.56,13.56,0,0,1-1-2l-.21.12a9.06,9.06,0,0,1,.22,2.38c-.25,5.34-.37,8-.62,13.35,0,.7-.75,1.22-2.15,1.54l-.82.18a4.93,4.93,0,0,1-1.09.15c-.66,0-1-.25-1-.73.39-9.32.59-14,1-23.29,0-.7.76-1.2,2.2-1.52l1.09-.25a4.38,4.38,0,0,1,.92-.12l.29,0a1,1,0,0,1,.73.54c3.07,4.52,4.59,6.76,7.56,11.17a13.56,13.56,0,0,1,1.14,2.29l.21-.13a10.74,10.74,0,0,1-.18-2.62c.28-5.21.42-7.82.71-13,0-.7.76-1.25,2.18-1.67l.83-.24a4.7,4.7,0,0,1,1.29-.24m0-6.18a10.78,10.78,0,0,0-3,.49l-.81.24c-3.73,1.1-5.37,3.17-6.09,4.92a7.07,7.07,0,0,0-3.56-1.66,8.45,8.45,0,0,0-1.25-.09,10.09,10.09,0,0,0-2.3.28l-1.07.24c-6.28,1.41-7,5.93-7,7.29l-.47,11L224,303.44a6.77,6.77,0,0,0,1.88,5,7.17,7.17,0,0,0,5.27,2.15,11.54,11.54,0,0,0,2.44-.29l.85-.19c4-.91,5.67-3.08,6.41-4.88a7,7,0,0,0,4,1.67l.67,0a9.83,9.83,0,0,0,2.79-.43l.83-.24c5.62-1.67,6.45-5.62,6.55-7.24l1.38-23.4a6.7,6.7,0,0,0-1.81-5.05,7,7,0,0,0-5.13-2.14Z" style="fill:#f0f0f0"></path><path d="M137.52,273c-.35-9.16-.52-13.75-.88-22.91a1.07,1.07,0,0,1,.31-1,1.5,1.5,0,0,1,1.12-.09c4.7.88,7.05,1.26,11.78,1.91.73.1,1.11.66,1.13,1.69l0,.94c0,1-.32,1.5-1,1.4-3-.41-4.47-.64-7.44-1.14.08,2.5.12,3.76.21,6.26,2.75.47,4.12.68,6.88,1.06.72.1,1.1.67,1.13,1.7,0,.37,0,.56,0,.93,0,1-.32,1.5-1,1.4-2.75-.38-4.12-.59-6.86-1.06.14,4,.2,5.94.33,9.9a.65.65,0,0,1-.48.71,3.74,3.74,0,0,1-1.66,0l-1.32-.24C138.29,274.22,137.55,273.73,137.52,273Z" style="fill:#9339EA"></path><path d="M155.53,275.81c-.21-9.14-.31-13.71-.53-22.86a1.12,1.12,0,0,1,.35-1,1.64,1.64,0,0,1,1.16-.2c2.82.31,4.24.44,7.07.66,5.89.47,8.86,2.81,8.9,7.36a5.78,5.78,0,0,1-4,5.86v.14c1.16.6,2.17,1.95,3,4.07,1.06,2.82,1.59,4.23,2.65,7l.09.24a.71.71,0,0,1,0,.24c0,.55-.77.8-2.32.73l-1.25-.06c-1.35-.07-2.1-.39-2.25-.95-1-2.81-1.47-4.22-2.47-7.05a4.27,4.27,0,0,0-1.21-1.77,4.09,4.09,0,0,0-2.07-.63l-1.61-.14c.07,3.55.1,5.32.17,8.87,0,.7-.75,1-2.26.83l-1.16-.12C156.3,276.94,155.55,276.51,155.53,275.81Zm8.53-12.41a2.32,2.32,0,0,0,2-.83,3.58,3.58,0,0,0,.79-2.53,3.63,3.63,0,0,0-.84-2.58,3.27,3.27,0,0,0-2.23-1c-1.19-.09-1.78-.15-3-.25,0,2.76.07,4.14.12,6.89C162.17,263.25,162.8,263.3,164.06,263.4Z" style="fill:#9339EA"></path><path d="M177.71,277.3c0-9.28-.05-13.91-.09-23.19,0-.72.75-1.06,2.25-1h1.45c1.47,0,2.2.36,2.2,1.08,0,9.27,0,13.91,0,23.18,0,.72-.72,1.09-2.16,1.08h-1.42C178.45,278.4,177.72,278,177.71,277.3Z" style="fill:#9339EA"></path><path d="M189.36,277.9a1.26,1.26,0,0,1-.34-1c.06-9,.08-13.48.13-22.47a1.37,1.37,0,0,1,.36-1,1.83,1.83,0,0,1,1.15-.35c5.14-.17,7.71-.33,12.85-.79a.93.93,0,0,1,.87.3,1.94,1.94,0,0,1,.24,1.14c0,.38,0,.56,0,.94a2.24,2.24,0,0,1-.28,1.19,1.13,1.13,0,0,1-.89.46c-3.38.3-5.07.42-8.45.59,0,2.5,0,3.75-.07,6.25,3-.16,4.5-.26,7.5-.51a.87.87,0,0,1,.86.3,1.92,1.92,0,0,1,.24,1.14V265a2.24,2.24,0,0,1-.29,1.19,1.11,1.11,0,0,1-.87.45c-3,.25-4.48.35-7.47.51,0,2.73-.05,4.1-.08,6.83,3.36-.18,5-.3,8.38-.6a.85.85,0,0,1,.82.29,2,2,0,0,1,.23,1.16c0,.37,0,.56,0,.93a2.2,2.2,0,0,1-.28,1.21,1,1,0,0,1-.82.43c-5,.45-7.56.61-12.62.78A1.6,1.6,0,0,1,189.36,277.9Z" style="fill:#9339EA"></path><path d="M209,276.49a1.19,1.19,0,0,1-.32-1c.21-9,.31-13.5.51-22.5a1.45,1.45,0,0,1,.38-1.06,1.94,1.94,0,0,1,1.14-.44c3.2-.38,4.79-.6,8-1.09,3.69-.56,6.42,0,8.16,1.67s2.52,4.69,2.35,9-1.19,7.67-3.06,10.06a12.37,12.37,0,0,1-8.22,4.47c-3.11.48-4.67.69-7.8,1.06A1.57,1.57,0,0,1,209,276.49Zm8.86-4.89a5.43,5.43,0,0,0,4-2.63,14.32,14.32,0,0,0,1.51-6.79q.16-4.57-1.07-6.35a3.66,3.66,0,0,0-3.89-1.36c-1.34.21-2,.3-3.35.49-.19,6.85-.29,10.27-.48,17.12Z" style="fill:#9339EA"></path><path d="M117.6,297.54c-1.85-2.59-2.91-6.14-3.17-10.61s.46-7.3,2.16-8.88,4.46-1.84,8.25-.88a17.41,17.41,0,0,1,3.89,1.42,2.24,2.24,0,0,1,.9.75,1.89,1.89,0,0,1,.26,1,4.2,4.2,0,0,1-.39,1.93.77.77,0,0,1-1.21.38,11.41,11.41,0,0,0-3-1.25q-2.88-.74-4.16,1c-.85,1.18-1.19,3.23-1,6.18a15.54,15.54,0,0,0,1.74,7,6.93,6.93,0,0,0,4.44,3.29,7.41,7.41,0,0,0,1.58.24c.45,0,1,0,1.53,0a1.34,1.34,0,0,1,.37,0,1.71,1.71,0,0,1,1.11,1.06,5.66,5.66,0,0,1,.46,2,1.29,1.29,0,0,1-.19.8,1.23,1.23,0,0,1-.86.35,9.31,9.31,0,0,1-1.83,0,13.88,13.88,0,0,1-2.41-.42A14.12,14.12,0,0,1,117.6,297.54Z" style="fill:#9339EA"></path><path d="M134.87,303.79c-.39-9.32-.59-14-1-23.29,0-.7.68-.89,2.12-.6l1.39.28c1.41.27,2.13.75,2.15,1.45l.35,9.32c3.41.64,5.12.93,8.54,1.43-.11-3.72-.17-5.59-.28-9.31,0-.7.7-.94,2.14-.74l1.37.19c1.45.19,2.18.62,2.2,1.32.23,9.29.34,13.93.57,23.22,0,.7-.69,1-2.1.77l-1.34-.18c-1.41-.2-2.13-.65-2.15-1.35-.12-3.94-.17-5.91-.29-9.85-3.41-.51-5.12-.79-8.51-1.43.15,4,.22,5.93.36,9.87,0,.7-.65.92-2,.65l-1.36-.27C135.61,305,134.9,304.48,134.87,303.79Z" style="fill:#9339EA"></path><path d="M159.83,307.66c-.18-9.29-.28-13.93-.46-23.21,0-.72.7-1,2.16-.87l1.41.12c1.43.12,2.15.53,2.16,1.24.13,9.28.2,13.92.34,23.2,0,.72-.68,1-2.08.92l-1.38-.12C160.56,308.81,159.84,308.38,159.83,307.66Z" style="fill:#9339EA"></path><path d="M172.49,306.67c-1.8-2.14-2.73-5.45-2.77-9.88s.85-7.45,2.71-9.48,4.75-3,8.64-2.95a15,15,0,0,1,3.94.45,1.57,1.57,0,0,1,.9.53,1.45,1.45,0,0,1,.21.93,4.81,4.81,0,0,1-.49,2c-.33.64-.75.87-1.27.68a9.68,9.68,0,0,0-3.07-.49,4.86,4.86,0,0,0-4.37,2.07c-.95,1.4-1.41,3.56-1.4,6.48s.51,5.14,1.46,6.59a5,5,0,0,0,4.45,2.19,7.13,7.13,0,0,0,1.62-.14c.46-.1,1-.23,1.58-.4a1.51,1.51,0,0,1,.38-.08,1.16,1.16,0,0,1,1.09.79,4.47,4.47,0,0,1,.37,1.95,1.52,1.52,0,0,1-.23.85,1.79,1.79,0,0,1-.9.57,12.62,12.62,0,0,1-1.89.45A16.44,16.44,0,0,1,181,310C177.11,310,174.29,308.82,172.49,306.67Z" style="fill:#9339EA"></path><path d="M209,307.71c0,.36-.66.62-2,.77l-2.13.22a6.56,6.56,0,0,1-1.4,0,1.08,1.08,0,0,1-.76-.42L196,297.38l-.13.05c-.05,4.38-.07,6.57-.13,10.95,0,.69-.75,1.09-2.23,1.16l-1.26.06c-1.42.06-2.13-.27-2.13-1,.06-9.28.1-13.92.16-23.19,0-.7.74-1.06,2.19-1.13l1.29-.06c1.51-.07,2.27.23,2.26.92,0,4.34-.08,6.51-.13,10.85l.13,0L203,284.23a1.3,1.3,0,0,1,.74-.55,6.3,6.3,0,0,1,1.37-.26l1.79-.18c1.37-.14,2.05-.06,2,.28a1.71,1.71,0,0,1-.32.79c-3.08,4.79-4.61,7.16-7.65,11.86l7.72,10.89A1.14,1.14,0,0,1,209,307.71Z" style="fill:#9339EA"></path><path d="M211.76,307.53a1.16,1.16,0,0,1-.31-1c.23-9,.35-13.5.58-22.51a1.49,1.49,0,0,1,.37-1.07,1.91,1.91,0,0,1,1.11-.45c5-.67,7.46-1.07,12.4-2a.75.75,0,0,1,.83.22,1.82,1.82,0,0,1,.21,1.12c0,.37,0,.56,0,.93a2.45,2.45,0,0,1-.3,1.22,1.21,1.21,0,0,1-.86.54c-3.26.62-4.89.9-8.16,1.4-.08,2.51-.11,3.76-.19,6.26,2.9-.44,4.35-.69,7.23-1.22a.75.75,0,0,1,.83.22,1.84,1.84,0,0,1,.21,1.12c0,.38,0,.56,0,.94a2.6,2.6,0,0,1-.29,1.22,1.21,1.21,0,0,1-.86.53c-2.87.54-4.31.78-7.2,1.22-.09,2.74-.13,4.11-.21,6.84,3.24-.5,4.85-.77,8.08-1.39a.71.71,0,0,1,.77.21,1.85,1.85,0,0,1,.21,1.14c0,.38,0,.56,0,.94a2.6,2.6,0,0,1-.29,1.24,1.2,1.2,0,0,1-.8.51c-4.86.92-7.29,1.31-12.18,2A1.36,1.36,0,0,1,211.76,307.53Z" style="fill:#9339EA"></path><path d="M230.21,303.7c.39-9.32.59-14,1-23.29,0-.7.76-1.2,2.2-1.52l1.09-.25a3.42,3.42,0,0,1,1.21-.1,1,1,0,0,1,.73.54c3.07,4.52,4.59,6.76,7.56,11.17a13.56,13.56,0,0,1,1.14,2.29,1.48,1.48,0,0,1,.21-.13,11.29,11.29,0,0,1-.19-2.62c.29-5.21.43-7.82.72-13,0-.7.76-1.25,2.18-1.67l.83-.24c1.41-.42,2.09-.29,2,.41-.55,9.36-.82,14-1.37,23.39-.05.71-.76,1.27-2.14,1.68l-.81.24a3.42,3.42,0,0,1-1.21.17.8.8,0,0,1-.7-.47c-3.07-4.57-4.64-6.88-7.82-11.56a13.56,13.56,0,0,1-1-2l-.21.12a9.06,9.06,0,0,1,.22,2.38c-.25,5.34-.37,8-.62,13.35,0,.7-.75,1.22-2.15,1.54l-.82.18C230.87,304.6,230.18,304.4,230.21,303.7Z" style="fill:#9339EA"></path><g style="opacity:0.5"><path d="M137.52,273c-.35-9.16-.52-13.75-.88-22.91a1.07,1.07,0,0,1,.31-1,1.5,1.5,0,0,1,1.12-.09c4.7.88,7.05,1.26,11.78,1.91.73.1,1.11.66,1.13,1.69l0,.94c0,1-.32,1.5-1,1.4-3-.41-4.47-.64-7.44-1.14.08,2.5.12,3.76.21,6.26,2.75.47,4.12.68,6.88,1.06.72.1,1.1.67,1.13,1.7,0,.37,0,.56,0,.93,0,1-.32,1.5-1,1.4-2.75-.38-4.12-.59-6.86-1.06.14,4,.2,5.94.33,9.9a.65.65,0,0,1-.48.71,3.74,3.74,0,0,1-1.66,0l-1.32-.24C138.29,274.22,137.55,273.73,137.52,273Z"></path><path d="M155.53,275.81c-.21-9.14-.31-13.71-.53-22.86a1.12,1.12,0,0,1,.35-1,1.64,1.64,0,0,1,1.16-.2c2.82.31,4.24.44,7.07.66,5.89.47,8.86,2.81,8.9,7.36a5.78,5.78,0,0,1-4,5.86v.14c1.16.6,2.17,1.95,3,4.07,1.06,2.82,1.59,4.23,2.65,7l.09.24a.71.71,0,0,1,0,.24c0,.55-.77.8-2.32.73l-1.25-.06c-1.35-.07-2.1-.39-2.25-.95-1-2.81-1.47-4.22-2.47-7.05a4.27,4.27,0,0,0-1.21-1.77,4.09,4.09,0,0,0-2.07-.63l-1.61-.14c.07,3.55.1,5.32.17,8.87,0,.7-.75,1-2.26.83l-1.16-.12C156.3,276.94,155.55,276.51,155.53,275.81Zm8.53-12.41a2.32,2.32,0,0,0,2-.83,3.58,3.58,0,0,0,.79-2.53,3.63,3.63,0,0,0-.84-2.58,3.27,3.27,0,0,0-2.23-1c-1.19-.09-1.78-.15-3-.25,0,2.76.07,4.14.12,6.89C162.17,263.25,162.8,263.3,164.06,263.4Z"></path><path d="M177.71,277.3c0-9.28-.05-13.91-.09-23.19,0-.72.75-1.06,2.25-1h1.45c1.47,0,2.2.36,2.2,1.08,0,9.27,0,13.91,0,23.18,0,.72-.72,1.09-2.16,1.08h-1.42C178.45,278.4,177.72,278,177.71,277.3Z"></path><path d="M189.36,277.9a1.26,1.26,0,0,1-.34-1c.06-9,.08-13.48.13-22.47a1.37,1.37,0,0,1,.36-1,1.83,1.83,0,0,1,1.15-.35c5.14-.17,7.71-.33,12.85-.79a.93.93,0,0,1,.87.3,1.94,1.94,0,0,1,.24,1.14c0,.38,0,.56,0,.94a2.24,2.24,0,0,1-.28,1.19,1.13,1.13,0,0,1-.89.46c-3.38.3-5.07.42-8.45.59,0,2.5,0,3.75-.07,6.25,3-.16,4.5-.26,7.5-.51a.87.87,0,0,1,.86.3,1.92,1.92,0,0,1,.24,1.14V265a2.24,2.24,0,0,1-.29,1.19,1.11,1.11,0,0,1-.87.45c-3,.25-4.48.35-7.47.51,0,2.73-.05,4.1-.08,6.83,3.36-.18,5-.3,8.38-.6a.85.85,0,0,1,.82.29,2,2,0,0,1,.23,1.16c0,.37,0,.56,0,.93a2.2,2.2,0,0,1-.28,1.21,1,1,0,0,1-.82.43c-5,.45-7.56.61-12.62.78A1.6,1.6,0,0,1,189.36,277.9Z"></path><path d="M209,276.49a1.19,1.19,0,0,1-.32-1c.21-9,.31-13.5.51-22.5a1.45,1.45,0,0,1,.38-1.06,1.94,1.94,0,0,1,1.14-.44c3.2-.38,4.79-.6,8-1.09,3.69-.56,6.42,0,8.16,1.67s2.52,4.69,2.35,9-1.19,7.67-3.06,10.06a12.37,12.37,0,0,1-8.22,4.47c-3.11.48-4.67.69-7.8,1.06A1.57,1.57,0,0,1,209,276.49Zm8.86-4.89a5.43,5.43,0,0,0,4-2.63,14.32,14.32,0,0,0,1.51-6.79q.16-4.57-1.07-6.35a3.66,3.66,0,0,0-3.89-1.36c-1.34.21-2,.3-3.35.49-.19,6.85-.29,10.27-.48,17.12Z"></path><path d="M117.6,297.54c-1.85-2.59-2.91-6.14-3.17-10.61s.46-7.3,2.16-8.88,4.46-1.84,8.25-.88a17.41,17.41,0,0,1,3.89,1.42,2.24,2.24,0,0,1,.9.75,1.89,1.89,0,0,1,.26,1,4.2,4.2,0,0,1-.39,1.93.77.77,0,0,1-1.21.38,11.41,11.41,0,0,0-3-1.25q-2.88-.74-4.16,1c-.85,1.18-1.19,3.23-1,6.18a15.54,15.54,0,0,0,1.74,7,6.93,6.93,0,0,0,4.44,3.29,7.41,7.41,0,0,0,1.58.24c.45,0,1,0,1.53,0a1.34,1.34,0,0,1,.37,0,1.71,1.71,0,0,1,1.11,1.06,5.66,5.66,0,0,1,.46,2,1.29,1.29,0,0,1-.19.8,1.23,1.23,0,0,1-.86.35,9.31,9.31,0,0,1-1.83,0,13.88,13.88,0,0,1-2.41-.42A14.12,14.12,0,0,1,117.6,297.54Z"></path><path d="M134.87,303.79c-.39-9.32-.59-14-1-23.29,0-.7.68-.89,2.12-.6l1.39.28c1.41.27,2.13.75,2.15,1.45l.35,9.32c3.41.64,5.12.93,8.54,1.43-.11-3.72-.17-5.59-.28-9.31,0-.7.7-.94,2.14-.74l1.37.19c1.45.19,2.18.62,2.2,1.32.23,9.29.34,13.93.57,23.22,0,.7-.69,1-2.1.77l-1.34-.18c-1.41-.2-2.13-.65-2.15-1.35-.12-3.94-.17-5.91-.29-9.85-3.41-.51-5.12-.79-8.51-1.43.15,4,.22,5.93.36,9.87,0,.7-.65.92-2,.65l-1.36-.27C135.61,305,134.9,304.48,134.87,303.79Z"></path><path d="M159.83,307.66c-.18-9.29-.28-13.93-.46-23.21,0-.72.7-1,2.16-.87l1.41.12c1.43.12,2.15.53,2.16,1.24.13,9.28.2,13.92.34,23.2,0,.72-.68,1-2.08.92l-1.38-.12C160.56,308.81,159.84,308.38,159.83,307.66Z"></path><path d="M172.49,306.67c-1.8-2.14-2.73-5.45-2.77-9.88s.85-7.45,2.71-9.48,4.75-3,8.64-2.95a15,15,0,0,1,3.94.45,1.57,1.57,0,0,1,.9.53,1.45,1.45,0,0,1,.21.93,4.81,4.81,0,0,1-.49,2c-.33.64-.75.87-1.27.68a9.68,9.68,0,0,0-3.07-.49,4.86,4.86,0,0,0-4.37,2.07c-.95,1.4-1.41,3.56-1.4,6.48s.51,5.14,1.46,6.59a5,5,0,0,0,4.45,2.19,7.13,7.13,0,0,0,1.62-.14c.46-.1,1-.23,1.58-.4a1.51,1.51,0,0,1,.38-.08,1.16,1.16,0,0,1,1.09.79,4.47,4.47,0,0,1,.37,1.95,1.52,1.52,0,0,1-.23.85,1.79,1.79,0,0,1-.9.57,12.62,12.62,0,0,1-1.89.45A16.44,16.44,0,0,1,181,310C177.11,310,174.29,308.82,172.49,306.67Z"></path><path d="M209,307.71c0,.36-.66.62-2,.77l-2.13.22a6.56,6.56,0,0,1-1.4,0,1.08,1.08,0,0,1-.76-.42L196,297.38l-.13.05c-.05,4.38-.07,6.57-.13,10.95,0,.69-.75,1.09-2.23,1.16l-1.26.06c-1.42.06-2.13-.27-2.13-1,.06-9.28.1-13.92.16-23.19,0-.7.74-1.06,2.19-1.13l1.29-.06c1.51-.07,2.27.23,2.26.92,0,4.34-.08,6.51-.13,10.85l.13,0L203,284.23a1.3,1.3,0,0,1,.74-.55,6.3,6.3,0,0,1,1.37-.26l1.79-.18c1.37-.14,2.05-.06,2,.28a1.71,1.71,0,0,1-.32.79c-3.08,4.79-4.61,7.16-7.65,11.86l7.72,10.89A1.14,1.14,0,0,1,209,307.71Z"></path><path d="M211.76,307.53a1.16,1.16,0,0,1-.31-1c.23-9,.35-13.5.58-22.51a1.49,1.49,0,0,1,.37-1.07,1.91,1.91,0,0,1,1.11-.45c5-.67,7.46-1.07,12.4-2a.75.75,0,0,1,.83.22,1.82,1.82,0,0,1,.21,1.12c0,.37,0,.56,0,.93a2.45,2.45,0,0,1-.3,1.22,1.21,1.21,0,0,1-.86.54c-3.26.62-4.89.9-8.16,1.4-.08,2.51-.11,3.76-.19,6.26,2.9-.44,4.35-.69,7.23-1.22a.75.75,0,0,1,.83.22,1.84,1.84,0,0,1,.21,1.12c0,.38,0,.56,0,.94a2.6,2.6,0,0,1-.29,1.22,1.21,1.21,0,0,1-.86.53c-2.87.54-4.31.78-7.2,1.22-.09,2.74-.13,4.11-.21,6.84,3.24-.5,4.85-.77,8.08-1.39a.71.71,0,0,1,.77.21,1.85,1.85,0,0,1,.21,1.14c0,.38,0,.56,0,.94a2.6,2.6,0,0,1-.29,1.24,1.2,1.2,0,0,1-.8.51c-4.86.92-7.29,1.31-12.18,2A1.36,1.36,0,0,1,211.76,307.53Z"></path><path d="M230.21,303.7c.39-9.32.59-14,1-23.29,0-.7.76-1.2,2.2-1.52l1.09-.25a3.42,3.42,0,0,1,1.21-.1,1,1,0,0,1,.73.54c3.07,4.52,4.59,6.76,7.56,11.17a13.56,13.56,0,0,1,1.14,2.29,1.48,1.48,0,0,1,.21-.13,11.29,11.29,0,0,1-.19-2.62c.29-5.21.43-7.82.72-13,0-.7.76-1.25,2.18-1.67l.83-.24c1.41-.42,2.09-.29,2,.41-.55,9.36-.82,14-1.37,23.39-.05.71-.76,1.27-2.14,1.68l-.81.24a3.42,3.42,0,0,1-1.21.17.8.8,0,0,1-.7-.47c-3.07-4.57-4.64-6.88-7.82-11.56a13.56,13.56,0,0,1-1-2l-.21.12a9.06,9.06,0,0,1,.22,2.38c-.25,5.34-.37,8-.62,13.35,0,.7-.75,1.22-2.15,1.54l-.82.18C230.87,304.6,230.18,304.4,230.21,303.7Z"></path></g></g></g><g id="freepik--Plate--inject-3"><g id="freepik--plate--inject-3"><g id="freepik--plate--inject-3"><path d="M393.67,344.6c-41.48-24-108.75-24-150.24,0-20.74,12-31.11,27.67-31.11,43.37v4.45c0,15.69,10.37,31.39,31.11,43.37,41.49,23.95,108.76,23.95,150.25,0,20.74-12,31.11-27.68,31.11-43.37V388C424.81,372.31,414.44,356.59,393.67,344.6Z" style="fill:#ebebeb"></path><path d="M393.67,344.6c-41.48-24-108.75-24-150.24,0s-41.49,62.79,0,86.74,108.76,24,150.25,0S435.16,368.55,393.67,344.6Z" style="fill:#fff"></path><path d="M318.55,327.78c28.18,0,54.66,6.33,74.55,17.81C412.79,357,423.64,372,423.64,388s-10.85,31-30.54,42.37c-19.89,11.49-46.37,17.81-74.55,17.81S263.9,441.83,244,430.34C224.31,419,213.47,403.92,213.47,388s10.84-31,30.54-42.38c19.89-11.48,46.36-17.81,74.54-17.81m0-1.15c-27.19,0-54.38,6-75.12,18-41.49,23.95-41.49,62.79,0,86.74,20.75,12,47.94,18,75.12,18s54.38-6,75.13-18c41.48-23.95,41.48-62.79,0-86.74-20.74-12-47.93-18-75.12-18Z" style="fill:#f0f0f0"></path><path d="M373.57,358.43c-30.38-17.55-79.65-17.55-110,0s-30.38,46,0,63.53,79.66,17.54,110,0S404,376,373.57,358.43Z" style="fill:#f0f0f0"></path><path d="M365.87,363.13c-26.63-15.37-69.8-15.37-96.42,0s-26.63,40.3,0,55.67,69.79,15.37,96.42,0S392.49,378.5,365.87,363.13Z" style="fill:#fff"></path><path d="M242.81,427.8a125.7,125.7,0,0,0,27.88,10.56,171.12,171.12,0,0,0,29.39,4.74,193,193,0,0,0,29.74-.09,177.87,177.87,0,0,0,29.31-4.77A129.84,129.84,0,0,0,386.88,428c8.75-4.49,17-10.25,23.29-17.74a43.06,43.06,0,0,0,7.47-12.5,33.76,33.76,0,0,0,2.18-14.36,36.11,36.11,0,0,0-4-14.11A45.81,45.81,0,0,0,412,363a55.62,55.62,0,0,0-4.78-5.75,55.36,55.36,0,0,1,5.12,5.49,47.07,47.07,0,0,1,4.23,6.23,37.34,37.34,0,0,1,4.69,14.36,35.11,35.11,0,0,1-1.82,15.1,44.8,44.8,0,0,1-7.51,13.27,62.94,62.94,0,0,1-11,10.56,90.66,90.66,0,0,1-12.81,8.15,130.75,130.75,0,0,1-28.3,10.56,179.06,179.06,0,0,1-59.91,4.31,158.78,158.78,0,0,1-29.56-5.59,133.91,133.91,0,0,1-14.16-5.05A102.32,102.32,0,0,1,242.81,427.8Z" style="fill:#fff"></path></g><path d="M331.44,320.22c-3.54,2.36-5.8,6.23-7.44,10.15-.9,2.14-1.83,4.53-3.9,5.57-2.91,1.47-6.82-.42-9.54,1.39-1.89,1.26-2.6,4-4.73,4.8-2.4.9-5.09-1.24-7.55-.53s-3.37,3.78-5.47,5.26-4.65,1.14-7.08,1.06c-5.85-.19-11.64,1.07-17.36,2.33a22.33,22.33,0,0,0-6.07,1.95,13.61,13.61,0,0,1-3.28,1.64c-1.85.42-3.75-.43-5.64-.49-5.31-.17-8.66,5.33-12.07,9.4-4.61,5.53-11.37,9.77-13.34,16.69s1.65,14.28,6.39,19.7a9.53,9.53,0,0,1,2.33,3.56c.4,1.51,0,3.09-.16,4.64-.45,6,3.84,11.13,7.87,15.55,1.66,1.82,3.58,3.77,6,3.91,2.29.12,4.35-1.4,6.63-1.7,2.57-.34,5.06.88,7.5,1.78s5.38,1.42,7.47-.12a30.72,30.72,0,0,0,2.21-2.21c3.45-3.09,8.83-1.51,13.42-2.13s8.57-3.6,12.27-6.47c2.62-2,5.49-4.56,5.44-7.87,0-1.09-.33-2.32.34-3.19s1.86-.88,2.88-1.16c2.51-.67,4.2-3,5.27-5.38s1.77-4.94,3.32-7c1.26-1.7,3-3,4.28-4.68a10.21,10.21,0,0,0,1.66-8.35,4.89,4.89,0,0,1-.27-2.47c.51-1.76,2.89-1.87,4.6-2.54,3.53-1.38,4.61-5.71,6.44-9a16.86,16.86,0,0,1,12.9-8.47c1.67-.16,3.55-.14,4.74-1.32,1.45-1.43,1.16-3.94,2.4-5.55s3.38-1.91,4.39-3.5c1.31-2.06-.08-4.83.61-7.16.36-1.23,1.29-2.29,1.4-3.57.3-3.64-5.53-4.61-6.83-8-.55-1.44-.19-3.1-.75-4.54a5.08,5.08,0,0,0-4.29-2.86c-1.69-.17-3.46.84-5,.65-1.3-.17-2.55-1.29-3.94-1.54A11.35,11.35,0,0,0,331.44,320.22Z" style="fill:#c8856a"></path><path d="M353.51,326.67c-.55-1.44-.19-3.1-.75-4.54a5.08,5.08,0,0,0-4.29-2.86c-1.69-.17-3.46.84-5,.65-1.3-.17-2.55-1.29-3.94-1.54a10.46,10.46,0,0,0-3.74.07c2.19,2.05,4.24,4.42,7.09,5.32,1.73.54,3.94.71,4.69,2.36s-.6,3.48-1,5.27c-.75,3.14,1.33,7.08-1,9.35-3.19,3.17-10-1.89-12.67,1.74,2.06,1.86,5.18,3.18,5.51,5.94s-2.32,4.74-4.84,5.65-5.38,1.33-7.25,3.25c-1.52,1.56-2.06,3.79-2.94,5.77s-2.5,4-4.67,4c-1.12,0-2.22-.49-3.32-.28-2.33.46-2.8,3.71-1.94,5.92s2.51,4.22,2.54,6.59c0,1.9-1,3.63-2,5.25q-1.77,2.85-3.53,5.7c-.34.54-.61,1.31-1.22,1.58-1,.43-1.47-.48-1.71-1.28l-.58-2a2.85,2.85,0,0,0-.44-1,2.44,2.44,0,0,0-.77-.54,28.37,28.37,0,0,0-8.53-2.3l2.74,3.15a3.48,3.48,0,0,1,.94,1.58c.23,1.21-.81,2.26-1.23,3.42a9.86,9.86,0,0,0-.3,3.17,26.19,26.19,0,0,1-.84,5.27,2.74,2.74,0,0,1-1.39,2.14,62.8,62.8,0,0,1-8.35,5.38,13.83,13.83,0,0,1-4.48,1.68,11.5,11.5,0,0,1-5.2-.68c-3.9-1.51-7.5-5.32-11.49-4.08-1.69.53-3,1.9-4.29,3.09-2.56,2.33-5.74,4.22-9.2,4.29s-7.11-2.18-7.75-5.58c-.25-1.32,0-2.69-.23-4-.6-4.38-5-7.08-9-8.89-3.05-1.38-6.4-2.84-8.57-5.24a30.18,30.18,0,0,0,5.84,9.66,9.53,9.53,0,0,1,2.33,3.56c.4,1.51,0,3.09-.16,4.64-.45,6,3.84,11.13,7.87,15.55,1.66,1.82,3.58,3.77,6,3.91,2.29.12,4.35-1.4,6.63-1.7,2.57-.34,5.06.88,7.5,1.78s5.38,1.42,7.47-.12a30.72,30.72,0,0,0,2.21-2.21c3.45-3.09,8.83-1.51,13.42-2.13s8.57-3.6,12.27-6.47c2.62-2,5.49-4.56,5.44-7.87,0-1.09-.33-2.32.34-3.19s1.86-.88,2.88-1.16c2.51-.67,4.2-3,5.27-5.38s1.77-4.94,3.32-7c1.26-1.7,3-3,4.28-4.68a10.21,10.21,0,0,0,1.66-8.35,4.89,4.89,0,0,1-.27-2.47c.51-1.76,2.89-1.87,4.6-2.54,3.53-1.38,4.61-5.71,6.44-9a16.86,16.86,0,0,1,12.9-8.47c1.67-.16,3.55-.14,4.74-1.32,1.45-1.43,1.16-3.94,2.4-5.55s3.38-1.91,4.39-3.5c1.31-2.06-.08-4.83.61-7.16.36-1.23,1.29-2.29,1.4-3.57C360.64,331.05,354.81,330.08,353.51,326.67Z" style="fill:#af6152"></path><path d="M324.57,360.61a3,3,0,0,0-1.73,2.25,7.22,7.22,0,0,1-.72,2c-.67,1-1.61.6-2.62.53-1.45-.1-3.21-.31-4.53.41s-1.75,2.12-2.34,3.42c-1.73,3.84-6.25.2-9.12-.15a11.06,11.06,0,0,0-5.13.59,10.63,10.63,0,0,0-3.85,2.6c-.14.13-.14.68.13.51a12.06,12.06,0,0,1,11.06-.72c2.66,1.25,6.49,3.28,8.73.13.77-1.08.88-2.91,2.05-3.66s2.9.07,4.25-.37a3.91,3.91,0,0,0,2.13-2.32c.57-1.44.3-3.58,1.8-4.42C324.94,361.25,325,360.49,324.57,360.61Z" style="fill:#9a4a4d"></path><path d="M341.28,329.77a9.12,9.12,0,0,0,1.64-3.44,15.15,15.15,0,0,1,.92-3.62,8,8,0,0,1,1.25-1.66,17.59,17.59,0,0,1,1.6-1.63,10.59,10.59,0,0,1-3.25.5,4.3,4.3,0,0,1-1-.3,1.39,1.39,0,0,1-.15.19,4.91,4.91,0,0,0-.91,2.08,28.65,28.65,0,0,0,.19,3.21,10.83,10.83,0,0,1-1.11,5C340.74,330.31,341.07,330,341.28,329.77Z" style="fill:#9a4a4d"></path><path d="M352.46,352.92c-.47,0-.94-.08-1.41-.1-2.28-.13-5,.06-7-1.31-1.07-.74-1.61-2.1-2.34-3.11a13.25,13.25,0,0,0-2.76-2.93,10.72,10.72,0,0,0-3.7-1.65c-1.45-.43-3.61-1.2-3.84-3-.06-.45-.51-.32-.51.09a3.56,3.56,0,0,0,.83,2.61,8.66,8.66,0,0,0,3.45,2.25,9.84,9.84,0,0,1,2.36,1.18,5.83,5.83,0,0,1,1.26,2.43A11.55,11.55,0,0,0,341,353a10.29,10.29,0,0,0,5.45,2.86l.37-.06c1.67-.16,3.55-.14,4.74-1.32A4.07,4.07,0,0,0,352.46,352.92Z" style="fill:#9a4a4d"></path><path d="M308.2,403.52a5.12,5.12,0,0,0,.43-3.81c-.49-1.3-1.69-2-2.39-3.12-.91-1.46-.65-3.44-.93-5.07a7.4,7.4,0,0,0-4.3-5.31,66,66,0,0,0-8.48-3.21c-.24-.09-.34.42-.14.5,2.56,1.09,5.25,2,7.71,3.35,1.28.68,2.74,1.61,2.92,3.17s-.44,3.08-.26,4.67a8.09,8.09,0,0,0,1.27,3.52c.39.57.91,1,1.33,1.51s.36.5.19,1.07a9.7,9.7,0,0,0-.87,3.5,5.34,5.34,0,0,0,.62,2.08,2.32,2.32,0,0,1,.42-1.48,3.75,3.75,0,0,1,2.35-1Z" style="fill:#9a4a4d"></path><path d="M304.55,342.63c2.21,1.11,2.77,3.82,5,5,2.74,1.41,5-.42,7.63-1.11,1.56-.42,3.84-.77,5.25.25a4.67,4.67,0,0,1,1.41,1.79,10.55,10.55,0,0,0,.61,1.74.08.08,0,0,0,.13,0c1.24-1.74-1.36-4.33-2.57-5.29-2.48-2-5.33-1.83-8.17-.78-1.46.54-3.18,1.45-4.31,0a21.44,21.44,0,0,0-2.34-2.91,3.88,3.88,0,0,1-1.35.89,4.22,4.22,0,0,1-2.06.16C304,342.41,304.3,342.51,304.55,342.63Z" style="fill:#9a4a4d"></path><path d="M233.9,374.17c1,1,1.08,2.47,1.93,3.56a4.63,4.63,0,0,0,3.37,1.75,9.45,9.45,0,0,0,4-.5c1.44-.56,2.43-1.86,3.91-2.34,3-1,6.13,0,7.08,3.29,0,.1.13,0,.11-.1a7.77,7.77,0,0,0-4.85-5.68,6.21,6.21,0,0,0-4.37.21c-1.79.76-2.93,1.94-5,2.1-.56.05-1.81.28-2.28-.11s-.63-1.58-.91-2.13a8.28,8.28,0,0,0-3.2-3.23l-.34-.16c-.64.68-1.26,1.38-1.85,2.1A5.22,5.22,0,0,1,233.9,374.17Z" style="fill:#9a4a4d"></path><path d="M246.84,397.52a19.86,19.86,0,0,1-8.12-2.33c-3.33-1.82-6.52-4.18-10.1-5.43a24.71,24.71,0,0,0,1.59,3.48c3.29,1.46,6.29,3.75,9.55,5.22a17.79,17.79,0,0,0,7.18,1.62c2.56,0,5.53-.4,7.89.82.29.15.39-.51.21-.66C252.65,398.21,249.87,397.78,246.84,397.52Z" style="fill:#9a4a4d"></path><path d="M275.6,357.41a19.93,19.93,0,0,1-7.5.17c-3.05-.65-4.91-2.6-7.27-4.45a.1.1,0,0,0-.05,0,6.67,6.67,0,0,1-1.76.75,5.75,5.75,0,0,1-1.85.07,30,30,0,0,1,5.16,2.95c3.76,2.56,9.23,3.92,13.33,1.38C275.86,358.11,276,357.35,275.6,357.41Z" style="fill:#9a4a4d"></path><path d="M293.19,363.9a1.34,1.34,0,0,0-.71-1,2.08,2.08,0,0,0-1.74.14,2.44,2.44,0,0,0-.7.53,4.91,4.91,0,0,0-.31.44,7,7,0,0,1-.73-.21,10.7,10.7,0,0,0-1.12-.26,2.84,2.84,0,0,0-1.86.24,3.28,3.28,0,0,0-1.81,3.16c0,.29.36.7.52.23a2.73,2.73,0,0,1,1.51-1.53,3.18,3.18,0,0,1,2.38.19c.83.33,2.07.94,2.59-.12a1.27,1.27,0,0,1,.51-.59,3.25,3.25,0,0,1,1.07-.23C293.18,364.8,293.24,364.19,293.19,363.9Z" style="fill:#9a4a4d"></path><path d="M282.47,371.9a2.53,2.53,0,0,0-1.49-.45,2,2,0,0,0-1.31.92,24,24,0,0,0-1.48,2.49,3.13,3.13,0,0,1-2,1.63,27.93,27.93,0,0,1-2.89.25,4.24,4.24,0,0,0-3.93,3.24c-.5,1.93,0,4.37-1.61,5.85-.17.16-.14.78.16.58,1.42-.94,1.8-2.77,2.58-4.18a6.06,6.06,0,0,1,2-2.31,4.79,4.79,0,0,1,2.46-.45c1.92,0,3.81-.24,5-2a21.92,21.92,0,0,0,1.22-2.42,5.64,5.64,0,0,1,.72-1.08,1.62,1.62,0,0,0,.47-.73c.09-.34,0-.69.18-1C282.55,372.2,282.6,372,282.47,371.9Z" style="fill:#9a4a4d"></path><path d="M286.48,410.11a6.13,6.13,0,0,0-4.82-1c-.94.13-2.28.64-3.21.28s-1.56-1.35-2.2-2a11.66,11.66,0,0,0-4.47-2.76,5.08,5.08,0,0,0-2.45-.11,12.08,12.08,0,0,0-2.8.55c-.07,0-.13.21,0,.22a10.41,10.41,0,0,1,3,.62,28.72,28.72,0,0,1,2.89,1.43,8.15,8.15,0,0,1,2,1.61c.57.62,1,1.33,1.63,1.91a4.83,4.83,0,0,0,4.8,1.48,8.64,8.64,0,0,0,1.15-.55,7.25,7.25,0,0,1,1.88-.55,12.49,12.49,0,0,0,2.56-.65A.31.31,0,0,0,286.48,410.11Z" style="fill:#9a4a4d"></path><path d="M240.9,381.62a19.33,19.33,0,0,1-3.24-.49,4.34,4.34,0,0,1-2.56-1.19c-.59-.73-1-2-1.92-1.78a1.33,1.33,0,0,0-.71.51,6.23,6.23,0,0,0-.58,6.39,15.36,15.36,0,0,0,4.25,5.18c2.06,1.79,4.38,3.5,7.09,3.89a6.71,6.71,0,0,0,5.22-1.49c1.1-1,1.27-2.2,1.94-3.42a4.84,4.84,0,0,1,4.22-2.63c1.18-.15,3.69-.49,3.3-2.29-.43-2-3.47-1.13-4.5-2.48a9.9,9.9,0,0,1-.68-1.29c-1.18-2.11-5.13-3.07-7-1.45-1.12.95-1.07,2-2.71,2.36A7.31,7.31,0,0,1,240.9,381.62Z" style="fill:#fff;opacity:0.2"></path><path d="M251.21,358a56.27,56.27,0,0,0-7.21,8,5.28,5.28,0,0,0-1.12,2.13,2,2,0,0,0,.81,2.12,2.62,2.62,0,0,0,1.24.24,19.45,19.45,0,0,1,4.25,0,7.74,7.74,0,0,1,3.94,2.76c1,1.25,1.9,2.65,3,3.85a4.57,4.57,0,0,0,3.38,1.75,5,5,0,0,0,2.77-1.34c1.5-1.23,2.9-2.51,4.49-3.63a6.38,6.38,0,0,1,4.37-1.21,9.92,9.92,0,0,0,3-.48,1.9,1.9,0,0,0,.87-.5,1.72,1.72,0,0,0,.34-.69c1.22-3.76-.75-5.68-4.58-4.59a31.38,31.38,0,0,1-5.85,1.07,3.11,3.11,0,0,1-1.36-.09,2.77,2.77,0,0,1-1.44-1.68c-1-2.49-.16-6.34-3-7.55C257,357.29,253.17,356.21,251.21,358Z" style="fill:#fff;opacity:0.2"></path><path d="M302.72,345.94a4.16,4.16,0,0,0-4.18.18c-1.48,1.07-1.81,3.21-3.17,4.44s-3.64,1.24-5.6,1.23-4.23.28-5.29,1.94a18.91,18.91,0,0,1,9,1.95c2.13,1.06,4.38,2.57,6.68,2s4-3,6.16-2.37c1,.29,1.71,1.2,2.63,1.72,2.34,1.31,5.29-.26,7.07-2.26a8.15,8.15,0,0,1,1.8-1.72c1.25-.72,2.82-.5,4.25-.26a3.28,3.28,0,0,0-2.64-3.17,7.09,7.09,0,0,0-4.37.65,10.4,10.4,0,0,1-3.95,1.27C307.43,351.51,305.72,347.35,302.72,345.94Z" style="fill:#fff;opacity:0.2"></path><path d="M376,367.85c-1.69-1.51-2.74-3.82-5-4.66s-4.89.35-7.23-.3c-1.29-.35-2.36-1.24-3.61-1.71-2.12-.81-4.51-.35-6.66.36s-4.26,1.68-6.52,1.89c-1.75.16-3.54-.15-5.29.12-1.5.23-2.91.87-4.38,1.24a20.92,20.92,0,0,0-3.87,1,4.37,4.37,0,0,0-2.12,2.4c-.35.66,0,.63-.62,1.1a6.16,6.16,0,0,1-2.24.43,13.72,13.72,0,0,0-7.34,3.8c-1.77,1.67-2,4-2.73,6.21-1,2.85-2.56,5.37-2.65,8.49a28.47,28.47,0,0,1-.06,3.46c-.26,1.69-1.22,3.26-1.16,5,.08,2,1.55,3.68,2.26,5.58.85,2.28.72,5.14,2.6,6.69a14.82,14.82,0,0,0,3.48,1.57c2.22,1,3.11,3.28,5.18,4.48,2.59,1.49,5.29,1.5,8.2,1.49a9.18,9.18,0,0,1,3.25.38c1.77.67,3.05,2.36,4.58,3.57,3,2.37,6.32,1.69,9.53,2.9,3.53,1.33,6.76,2.84,10.47,1.95,2.75-.66,5.19-2.6,8.14-2.38,1.15.08,2.28.52,3.43.54,5,.1,7.7-7.15,12.68-7.35,1.54-.06,3.07.59,4.61.64a6.18,6.18,0,0,0,5.45-3.5c.53-1,.62-2.05,1.22-3,1.32-2,4.07-2.26,5-4.71.54-1.43.13-3.09.66-4.53.37-1,1.19-1.85,1.61-2.86.78-1.88.06-4.05-.92-5.83s-2.24-3.49-2.63-5.49c-.23-1.18-.14-2.4-.32-3.58-.39-2.46-1.85-3.83-3.58-5.41-1.58-1.43-3.15-1.88-5-2.85-2.3-1.17-4.28-3-6.68-4-3.32-1.3-7.22-.67-10.44-2.26A6.16,6.16,0,0,1,376,367.85Z" style="fill:#c8856a"></path><path d="M364.92,425l-.49-.14a25.28,25.28,0,0,1-6.66-2.52c-1.5-.92-2.83-2.17-4.51-2.7-1.93-.61-4.46-.4-5.5-2.15-.74-1.24-.27-2.92-.94-4.21-.83-1.61-3.17-2.12-3.74-3.84-.71-2.16,1.87-3.93,2.51-6.11-3.4,0-6.17,2.76-7.88,5.7-.34.58-.78,1.26-1.46,1.27-1,0-1.29-1.33-1.88-2.13-1.21-1.64-4.26-1.43-4.87-3.37-.65-2.1,2.5-4,1.86-6.09-2.16,1.29-5.5-.4-7.2,1.46-.54.58-.81,1.44-1.54,1.74-1.07.43-2.13-.73-2.47-1.83-.94-3,.26-6.65-1.64-9.15-.45-.58-1-1.05-1.5-1.63a5,5,0,0,1-1-2.78,10.29,10.29,0,0,0-.2,1.68,28.47,28.47,0,0,1-.06,3.46c-.26,1.69-1.22,3.26-1.16,5,.08,2,1.55,3.68,2.26,5.58.85,2.28.72,5.14,2.6,6.69a14.82,14.82,0,0,0,3.48,1.57c2.22,1,3.11,3.28,5.18,4.48,2.59,1.49,5.28,1.5,8.2,1.49a9.18,9.18,0,0,1,3.25.38c1.77.67,3.05,2.36,4.58,3.57,3,2.37,6.32,1.69,9.53,2.9,3.53,1.33,6.76,2.84,10.47,1.95C364.38,425.18,364.65,425.1,364.92,425Z" style="fill:#af6152"></path><path d="M403.34,386.81c-.23-1.18-.14-2.4-.32-3.58a5.93,5.93,0,0,0-5.21-5.12,16.2,16.2,0,0,0-1.71-.14,17.87,17.87,0,0,0-6.48.44,28.23,28.23,0,0,0-5.82,3.26,10.11,10.11,0,0,1-3.26,1.56c-1.32.29-2.71,0-4,.4a14.12,14.12,0,0,0-3.61,2.1c-2.52,1.62-5.52,2.26-8.26,3.45s-5.44,3.26-6,6.21c-.34,1.92.31,3.91,0,5.84a19.6,19.6,0,0,1-1.94,4.85c-.71,1.59-1.15,3.49-.36,5s2.65,2.36,3.5,3.9a20.13,20.13,0,0,1,1,3.48,6,6,0,0,0,4.15,3.87c1.59.4,3.29.12,4.87.55l.34.11a6.77,6.77,0,0,1,2-.16c1.15.08,2.28.52,3.43.54,5,.1,7.7-7.15,12.68-7.35,1.54-.06,3.07.59,4.61.64a6.18,6.18,0,0,0,5.45-3.5c.53-1,.62-2.05,1.22-3,1.32-2,4.07-2.26,5-4.71.54-1.43.13-3.09.66-4.53.37-1,1.19-1.85,1.61-2.86.78-1.88.06-4.05-.92-5.83S403.73,388.81,403.34,386.81Z" style="fill:#af6152"></path><path d="M388.44,383.31a18.45,18.45,0,0,1-2.7,1.89,11,11,0,0,1-2.82.49c-2.23.48-4,2.11-6.1,3-2.71,1.09-5.81.86-8.52,1.93a9.58,9.58,0,0,0-5.91,8.37,21.89,21.89,0,0,1-.11,4.21c-.38,1.61-1.54,3-1.8,4.6a4.75,4.75,0,0,0,1.25,3.93,12.94,12.94,0,0,1,1.44,1.52,12.77,12.77,0,0,1,1,3c1.05,3,5.52,1.69,7.91,2.31,1.31.34,2.52,1.21,3.86,1.11a5.22,5.22,0,0,0,2.47-1.05q1.9-1.26,3.69-2.7c1.48-1.21,3-2.55,4.9-2.83,1.64-.24,3.3.37,4.94.14a5,5,0,0,0,3.38-2.07c.73-1,1-2.39,2-3.28s2.19-1.17,3-2.09c1.41-1.64.53-4.18,1-6.29a17.87,17.87,0,0,1,1.37-3.26,4.17,4.17,0,0,0,.22-3.43,14.43,14.43,0,0,0-1.26-1.68c-1-1.47-.94-3.43-1.58-5.1-1.08-2.82-5-4.72-7.92-4.36A7.93,7.93,0,0,0,388.44,383.31Z" style="fill:#ffbda7"></path><path d="M379.78,405.94a36.14,36.14,0,0,0,3.52-4.67c.09-.14.05-.64-.2-.46a30.6,30.6,0,0,0-4.16,3.55q-1.92,2-3.86,3.94-3.81,3.87-7.64,7.7l-1.85,1.83a7,7,0,0,0,2.74.5l.33-.33c2.54-2.64,5-5.34,7.5-8.06Z" style="fill:#f0997a"></path><path d="M394,405.81a1.33,1.33,0,0,0-.49.33c-.17.14-.32.29-.48.44a12.61,12.61,0,0,0-.87.92c-.27.31-.53.62-.79.94s-.28.34-.41.52a5.45,5.45,0,0,0-.33.58.39.39,0,0,0,0,.38c0,.1.14.17.24.09a6.29,6.29,0,0,0,.47-.43c.13-.14.25-.3.37-.44.26-.31.53-.6.8-.9s.53-.56.78-.86l.38-.44a2.68,2.68,0,0,0,.53-.72C394.24,406.08,394.22,405.77,394,405.81Z" style="fill:#f0997a"></path><path d="M401.56,391.12a4.65,4.65,0,0,1-.61-1.27c-5.39,6.13-10.76,12.28-16.23,18.33-.22.25,0,1,.33.7,5.69-5.68,11.3-11.5,16.71-17.5C401.69,391.29,401.62,391.21,401.56,391.12Z" style="fill:#f0997a"></path><path d="M367.65,394.92l-.5.78a.4.4,0,0,0,0,.37c.05.09.14.16.23.08l.63-.52a4.26,4.26,0,0,0,.58-.62l.56-.61a2,2,0,0,0,.32-.39,4.88,4.88,0,0,0,.23-.64c0-.08,0-.27-.12-.24l-.22,0-.2.11a1.12,1.12,0,0,0-.34.31l-.57.67C368,394.48,367.82,394.69,367.65,394.92Z" style="fill:#f0997a"></path><path d="M400,398.76c-.14,0-.31.24-.38.33l-.22.26-.42.51-.84,1a.38.38,0,0,0,0,.4c.07.12.18.1.26,0l.9-1.08c.15-.18.3-.35.44-.53l.23-.27a.54.54,0,0,0,.19-.39C400.13,398.92,400.11,398.78,400,398.76Z" style="fill:#f0997a"></path><path d="M384.49,385.51a14,14,0,0,0-1.57.18,8.25,8.25,0,0,0-1.45.49c-4.49,5.36-9,10.69-13.73,15.83-.19.2,0,.89.26.62,4.79-4.82,9.62-9.62,14.23-14.61C383,387.19,383.74,386.35,384.49,385.51Z" style="fill:#f0997a"></path><path d="M378.45,397.93c-.19.22-.38.46-.57.69l-1.22,1.48c-.81,1-1.59,2-2.35,3-.05.08,0,.31.08.19q1.16-1.49,2.4-2.91c.39-.45.79-.88,1.21-1.3a6.14,6.14,0,0,0,1.24-1.36c.05-.09,0-.45-.15-.37A2.15,2.15,0,0,0,378.45,397.93Z" style="fill:#f0997a"></path><path d="M394.36,386.56c0,.12.05.29.18.34.38.15.77-.2,1-.45l.9-.86c.59-.58,1.19-1.17,1.74-1.79l.07-.09a9.56,9.56,0,0,0-1-.75c-.49.52-1,1-1.46,1.55S394.34,385.71,394.36,386.56Z" style="fill:#f0997a"></path><path d="M366.69,411.86a17,17,0,0,1,1.29-1.68c.47-.54.92-1.1,1.38-1.65.08-.1.05-.48-.13-.35a8.1,8.1,0,0,0-1.54,1.44,20.28,20.28,0,0,0-1.28,1.8.41.41,0,0,0,0,.44A.16.16,0,0,0,366.69,411.86Z" style="fill:#f0997a"></path><path d="M385.34,399.19a43.25,43.25,0,0,0,3.73-4.16c.57-.7,1.16-1.4,1.66-2.15s1-1.74,1.56-2.63c0-.09,0-.36-.13-.22-.61.7-1.26,1.35-1.86,2.06s-1.11,1.43-1.66,2.15c-1.17,1.49-2.4,2.93-3.56,4.42C384.94,398.83,385.09,399.43,385.34,399.19Z" style="fill:#f0997a"></path><path d="M347.23,399.2c0-.1-.12,0-.14.07-.59,2-3.39,3.06-5,4.05a6.24,6.24,0,0,0-3.13,4.43c-.35,2,.05,4.06-.05,6.09a6.65,6.65,0,0,1-.68,2.7,5.11,5.11,0,0,1,1.26.29,5.25,5.25,0,0,1,1.05.55A10.13,10.13,0,0,0,341,416c.51-2.36-.11-4.88.4-7.21s2.4-3,3.93-4.26a4.35,4.35,0,0,0,1.69-2.28A5.12,5.12,0,0,0,347.23,399.2Z" style="fill:#9a4a4d"></path><path d="M357.1,375.2a7.36,7.36,0,0,0-3.28-.63,2.55,2.55,0,0,1-2.36-1.17c-1.08-1.28-2.11-2.32-3.76-2.2s-2.9,1-4.32,1.67-3.45,1-4.25-.91c-.09-.22-.29.13-.25.27a3.32,3.32,0,0,0,2.84,2.32c1.92.27,3.48-1,5.27-1.38a2.86,2.86,0,0,1,2.85.93,13.7,13.7,0,0,0,1.66,1.9c1.57,1.27,4,.92,5.55-.06C357.21,375.83,357.35,375.32,357.1,375.2Z" style="fill:#9a4a4d"></path><path d="M349.47,367.64c1.52,1.5,3.74,1.48,5.7,2a11.08,11.08,0,0,1,7.18,7.3,6,6,0,0,0,1.2,2.65c1.21,1.14,3.05.42,4.17-.68s2-2.59,3.5-3.09c2.86-1,5.81,2.35,8.84,2.16a6.86,6.86,0,0,0,2.28-.66,39.17,39.17,0,0,0,5.18-2.69c-1.27-1.27-3.14-1.37-4.8-1.18s-3.36.58-5,0c-2.62-.89-4.33-4-7-4.79-1.72-.5-3.48.1-5.22.19a9.46,9.46,0,0,1-5-1.17c-1.37-.74-2.55-2.29-4-2.74C355.36,364.65,349,367.13,349.47,367.64Z" style="fill:#fff;opacity:0.2"></path><path d="M328.72,377.65a.8.8,0,0,0-.71.05.77.77,0,0,0-.13.76c.63,2.78,5.51,2.18,6,5a2.53,2.53,0,0,1-2.26,2.78,8.8,8.8,0,0,1-3.84-.82c-.29-.1-.65-.17-.86.06a1,1,0,0,0-.16.55c-.25,2.92-.49,5.84-.74,8.76a3.55,3.55,0,0,0,.1,1.59c.55,1.45,2.48,1.42,3.69.72,1.93-1.1,3.24-3.1,4.88-4.64s4-2.63,6-1.51c1.22.68,2.12,2.07,3.44,2.39,1.57.39,2.94-.88,4.31-1.68a8.18,8.18,0,0,1,5.57-1c.73.14,1.59.34,2.1-.21.81-.87-.28-2.5-1.44-2.7s-2.28.36-3.45.31c-1.57-.06-3-1.18-4.26-2.25l-4.68-3.91a2.88,2.88,0,0,0-1.15-.7,3.9,3.9,0,0,0-1.62.16c-2.18.36-3.59-1.16-5.46-2.07A28.55,28.55,0,0,0,328.72,377.65Z" style="fill:#fff;opacity:0.2"></path><path d="M303.93,421.44a12.42,12.42,0,0,0-.73,1.15c-.33.59-.53,1.44,0,1.84a1.49,1.49,0,0,0,1,.2c1.46,0,3-.13,4.29.77a3.38,3.38,0,0,0,3.65.56,6.77,6.77,0,0,0,2.08-1.61,1.18,1.18,0,0,1,.51-.38,1.44,1.44,0,0,1,.74,0c1.14.21,3.35-.5,2.59-2-.53-1.09-2.08-1.24-2.91-2-.41-.36-.71-.82-1.09-1.21a3.65,3.65,0,0,0-3.64-1,5,5,0,0,0-1.36,1.07,2.41,2.41,0,0,1-1.44.79c-.48,0-.87-.33-1.36-.33s-1,.45-1.29.87S304.25,421,303.93,421.44Z" style="fill:#c8856a"></path><path d="M325.5,427.23a3.45,3.45,0,0,0,1.75-.34.76.76,0,0,0,.46-.53.88.88,0,0,0-.53-.84,5.57,5.57,0,0,1-.92-.52c-.33-.28-.47-.72-.78-1a1.84,1.84,0,0,0-1.23-.46,2.26,2.26,0,0,0-2.26,1.43c-.3.64-.31,1.88.46,2.21.44.19.63-.07,1-.14A6.85,6.85,0,0,1,325.5,427.23Z" style="fill:#c8856a"></path><path d="M382.82,352.8a10.61,10.61,0,0,0-4.68,3.93,1,1,0,0,0-.23.77c.42,1.57,6.91,1,8.13,1.44,2,.72,5.39,0,6-2.44.54-2-4.76-4.67-6.27-4.51A10.36,10.36,0,0,0,382.82,352.8Z" style="fill:#c8856a"></path><path d="M373.42,349.64a2.27,2.27,0,0,0-1.78,1.86.27.27,0,0,0,0,.25.34.34,0,0,0,.26.08l3.61,0c.4,0,.93-.12.93-.51s-.44-.51-.79-.53-.76,0-.94-.32a2.16,2.16,0,0,1-.14-.43.85.85,0,0,0-1.29-.35" style="fill:#c8856a"></path></g></g><g id="freepik--Bread--inject-3"><g id="freepik--bread--inject-3"><path d="M187.89,407.25a10.74,10.74,0,0,0-4.68,3.94,1,1,0,0,0-.22.77c.41,1.57,6.9,1,8.13,1.43,2,.72,5.38,0,6-2.43.54-2-4.75-4.68-6.26-4.51A10.83,10.83,0,0,0,187.89,407.25Z" style="fill:#c8856a"></path><path d="M171.12,397.08a4.47,4.47,0,0,0-3.53,3.66.6.6,0,0,0,.09.51.64.64,0,0,0,.51.15l7.14.05c.79,0,1.85-.24,1.84-1s-.86-1-1.55-1.05-1.52,0-1.87-.64a4.48,4.48,0,0,1-.27-.83,1.69,1.69,0,0,0-2.57-.7" style="fill:#c8856a"></path><path d="M427,336.28a10.63,10.63,0,0,0-4.68,3.94,1,1,0,0,0-.23.77c.42,1.56,6.91,1,8.13,1.43,2,.72,5.38,0,6-2.44.54-2-4.76-4.67-6.27-4.5A10.34,10.34,0,0,0,427,336.28Z" style="fill:#c8856a"></path><path d="M442.53,346.77a3.62,3.62,0,0,0-2.86,3,.49.49,0,0,0,.07.41.53.53,0,0,0,.41.12l5.79,0c.64,0,1.5-.19,1.5-.83s-.7-.82-1.26-.84-1.23,0-1.52-.52a3.34,3.34,0,0,1-.21-.68,1.38,1.38,0,0,0-2.09-.57" style="fill:#c8856a"></path></g></g><g id="freepik--Sparkles--inject-3"><path id="freepik--Shine--inject-3" d="M451.63,206.08a.38.38,0,0,0-.34-.37l-8.17-.91a1.84,1.84,0,0,1-1.64-1.67l-.94-10.43a.38.38,0,0,0-.75,0l-.94,10.43a1.84,1.84,0,0,1-1.64,1.67l-8.17.91a.37.37,0,0,0-.34.37.38.38,0,0,0,.34.38l8.17.9a1.86,1.86,0,0,1,1.64,1.67l.94,10.43a.38.38,0,0,0,.75,0l.94-10.43a1.86,1.86,0,0,1,1.64-1.67l8.17-.9A.39.39,0,0,0,451.63,206.08Zm-8.6.53a2.62,2.62,0,0,0-2.3,2.36l-.57,6.26L439.6,209a2.62,2.62,0,0,0-2.31-2.36l-4.79-.53,4.79-.53a2.6,2.6,0,0,0,2.31-2.35l.56-6.27.57,6.27a2.6,2.6,0,0,0,2.3,2.35l4.79.53Zm29.12-27.86-5.24-.58a1.18,1.18,0,0,1-1.05-1.07l-.61-6.69a.23.23,0,0,0-.24-.22.24.24,0,0,0-.24.22l-.6,6.69a1.19,1.19,0,0,1-1.05,1.07l-5.25.58a.25.25,0,0,0-.21.24.23.23,0,0,0,.21.24l5.25.58a1.19,1.19,0,0,1,1.05,1.08l.6,6.69a.25.25,0,0,0,.24.22.24.24,0,0,0,.24-.22l.61-6.69a1.18,1.18,0,0,1,1.05-1.08l5.24-.58a.23.23,0,0,0,.21-.24A.25.25,0,0,0,472.15,178.75Zm-5.3.58a1.68,1.68,0,0,0-1.48,1.51l-.36,4-.36-4a1.67,1.67,0,0,0-1.48-1.51L460.1,179l3.07-.34a1.66,1.66,0,0,0,1.48-1.51l.36-4,.36,4a1.67,1.67,0,0,0,1.48,1.51l3.07.34ZM454.74,80l-9.42-1a2.13,2.13,0,0,1-1.89-1.92l-1.09-12a.43.43,0,0,0-.43-.4.43.43,0,0,0-.43.4l-1.08,12A2.14,2.14,0,0,1,438.51,79l-9.42,1a.44.44,0,0,0,0,.87l9.42,1a2.14,2.14,0,0,1,1.89,1.92l1.08,12a.43.43,0,0,0,.43.4.43.43,0,0,0,.43-.4l1.09-12a2.13,2.13,0,0,1,1.89-1.92l9.42-1a.44.44,0,0,0,0-.87Zm-9.52,1a3,3,0,0,0-2.66,2.72L441.91,91l-.65-7.22a3,3,0,0,0-2.66-2.72l-5.51-.61,5.51-.61a3,3,0,0,0,2.66-2.71l.65-7.22.65,7.22a3,3,0,0,0,2.66,2.71l5.52.61ZM89.14,71.94,85,71.48a.86.86,0,0,1-.76-.77l-.47-5.28a.28.28,0,0,0-.28-.25.27.27,0,0,0-.28.25l-.48,5.29a.84.84,0,0,1-.75.76l-4.14.46a.28.28,0,0,0-.25.28.29.29,0,0,0,.25.28L82,73a.85.85,0,0,1,.75.77L83.21,79a.28.28,0,0,0,.28.26.28.28,0,0,0,.28-.26l.47-5.28A.87.87,0,0,1,85,73l4.14-.45a.29.29,0,0,0,.25-.28A.28.28,0,0,0,89.14,71.94Zm-4.21.46a1.4,1.4,0,0,0-1.24,1.27l-.2,2.19-.2-2.19A1.4,1.4,0,0,0,82,72.4l-1.62-.18L82,72a1.41,1.41,0,0,0,1.25-1.27h0l.2-2.18.2,2.18A1.41,1.41,0,0,0,84.93,72l1.63.18ZM344.55,94.14l-5.45-.6a1.13,1.13,0,0,1-1-1l-.63-7a.37.37,0,0,0-.37-.34.36.36,0,0,0-.36.34l-.63,7a1.13,1.13,0,0,1-1,1l-5.45.6a.37.37,0,0,0,0,.73l5.45.61a1.11,1.11,0,0,1,1,1l.63,7a.35.35,0,0,0,.36.33.36.36,0,0,0,.37-.33l.63-7a1.11,1.11,0,0,1,1-1l5.45-.61a.37.37,0,0,0,0-.73Zm-5.54.6a1.86,1.86,0,0,0-1.64,1.68l-.26,2.88-.26-2.88a1.85,1.85,0,0,0-1.64-1.68l-2.13-.23,2.13-.24a1.85,1.85,0,0,0,1.64-1.67h0l.26-2.87.26,2.87A1.86,1.86,0,0,0,339,94.27l2.14.24Zm81.67-30.52-5.45-.61a1.12,1.12,0,0,1-1-1l-.62-7a.37.37,0,0,0-.74,0l-.63,7a1.1,1.1,0,0,1-1,1l-5.45.61a.36.36,0,0,0-.33.36.37.37,0,0,0,.33.37l5.45.6a1.11,1.11,0,0,1,1,1l.63,7a.37.37,0,0,0,.74,0l.62-7a1.13,1.13,0,0,1,1-1l5.45-.6a.37.37,0,0,0,.33-.37A.36.36,0,0,0,420.68,64.22Zm-5.53.6a1.85,1.85,0,0,0-1.64,1.67l-.26,2.88L413,66.49a1.85,1.85,0,0,0-1.64-1.67l-2.14-.24,2.14-.23A1.86,1.86,0,0,0,413,62.67h0l.26-2.88.26,2.88a1.86,1.86,0,0,0,1.64,1.68l2.13.23ZM224.35,46.71l-4.27-.48a.87.87,0,0,1-.78-.79L218.81,40a.28.28,0,0,0-.29-.26.29.29,0,0,0-.29.26l-.49,5.45a.86.86,0,0,1-.77.79l-4.28.48a.29.29,0,0,0,0,.57l4.28.48a.86.86,0,0,1,.77.79l.49,5.45a.29.29,0,0,0,.29.26.28.28,0,0,0,.29-.26l.49-5.45a.87.87,0,0,1,.78-.79l4.27-.48a.29.29,0,0,0,0-.57Zm-4.34.47a1.48,1.48,0,0,0-1.29,1.31l-.2,2.26-.2-2.26A1.47,1.47,0,0,0,217,47.18L215.35,47l1.68-.18a1.47,1.47,0,0,0,1.29-1.31h0l.2-2.25.2,2.25A1.48,1.48,0,0,0,220,46.81l1.68.18ZM324.56,72.23l-7.77-.86a1.76,1.76,0,0,1-1.56-1.59l-.89-9.92a.37.37,0,0,0-.36-.32.36.36,0,0,0-.36.32l-.89,9.92a1.77,1.77,0,0,1-1.56,1.59l-7.77.86a.36.36,0,0,0,0,.71l7.77.86a1.77,1.77,0,0,1,1.56,1.59l.89,9.92a.36.36,0,0,0,.36.32.37.37,0,0,0,.36-.32l.89-9.92a1.76,1.76,0,0,1,1.56-1.59l7.77-.86a.36.36,0,0,0,0-.71Zm-7.85.86a2.47,2.47,0,0,0-2.19,2.23l-.54,6-.54-6a2.47,2.47,0,0,0-2.19-2.23l-4.55-.51,4.55-.5a2.47,2.47,0,0,0,2.19-2.24l.54-6,.54,6a2.47,2.47,0,0,0,2.19,2.24l4.55.5ZM42.15,205.67,36,205a1.27,1.27,0,0,1-1.11-1.14l-.71-7.79a.4.4,0,0,0-.41-.38.41.41,0,0,0-.41.38l-.7,7.8A1.28,1.28,0,0,1,31.59,205l-6.11.67a.42.42,0,0,0-.37.41.41.41,0,0,0,.37.41l6.11.68a1.26,1.26,0,0,1,1.11,1.13l.7,7.8a.41.41,0,0,0,.41.38.4.4,0,0,0,.41-.38l.71-7.8A1.25,1.25,0,0,1,36,207.17l6.11-.68a.41.41,0,0,0,.37-.41A.42.42,0,0,0,42.15,205.67Zm-5.87.72a2.41,2.41,0,0,0-2.13,2.17l-.34,3.74-.34-3.73a2.4,2.4,0,0,0-2.13-2.18l-2.77-.31,2.77-.3a2.41,2.41,0,0,0,2.13-2.18h0l.34-3.74.34,3.74a2.42,2.42,0,0,0,2.13,2.18l2.77.3ZM69.42,54.75l-9.42-1a2.14,2.14,0,0,1-1.89-1.92L57,39.77a.44.44,0,0,0-.87,0l-1.08,12a2.14,2.14,0,0,1-1.89,1.92l-9.42,1a.44.44,0,0,0,0,.87l9.42,1a2.14,2.14,0,0,1,1.89,1.92l1.08,12a.44.44,0,0,0,.87,0l1.08-12A2.14,2.14,0,0,1,60,56.66l9.42-1a.44.44,0,0,0,0-.87Zm-9.52,1a3,3,0,0,0-2.65,2.72l-.65,7.22-.66-7.22a3,3,0,0,0-2.65-2.72l-5.52-.6,5.52-.61a3,3,0,0,0,2.65-2.72l.66-7.22.65,7.22a3,3,0,0,0,2.65,2.72l5.52.61Z" style="fill:#e0e0e0"></path></g></svg>
